<?xml version="1.0" encoding="utf-8"?>
<!-- Generator: Adobe Illustrator 27.0.1, SVG Export Plug-In . SVG Version: 6.00 Build 0)  -->
<svg version="1.1" id="Lager_1" xmlns="http://www.w3.org/2000/svg" xmlns:xlink="http://www.w3.org/1999/xlink" x="0px" y="0px"
	 viewBox="0 0 100 100" style="enable-background:new 0 0 100 100;" xml:space="preserve">
<style type="text/css">
	.st0{fill:#BCDAFF;}
	.st1{fill:#7693BF;}
	.st2{fill:#92B9E4;}
</style>
<rect x="-2.5" class="st0" width="105.7" height="100"/>
<path class="st1" d="M100,100c0.4-0.5,5.2-5,5.9-5.1c0.2,0,0.3-0.1,0.5-0.1c0.3-0.1,0.6-0.2,0.9-0.1c0.1,0,0.1,0.5,0.2,0.8
	c0,0.2,0.1,0.3,0.2,0.5c0,0,0.1,0,0.1-0.1c0-0.1,0-0.2,0.1-0.3c0.1-0.2,0.2-0.4,0.3-0.5c0.2-0.1,0.4,0,0.5,0.4
	c0,0.1,0.3,0.4,0.3,0.3c0.5-0.4,0.8,0,1,0.4c0.3,0,0.5-0.1,0.7,0c0.3,0.2,0.3,1.3,0,1.6c-0.2-0.2-0.4-0.4-0.6-0.7
	c0,0-0.1,0.1-0.1,0.1c0,0.2,0.1,0.4,0.2,0.6c-0.4,0.4-0.9,0.8-1.3,1.2c0.1,0.3,0.2,0.5,0.3,0.7c6.8,0,13.6,0,20.3,0
	c0.1-0.4,0.2-0.9,0.2-1.3c0-0.4,0.1-0.6,0.4-0.5c0.3,0,0.8,0.4,1-0.4c0-0.1,0.1-0.1,0.2-0.1c0.2-0.1,0.4-0.2,0.6-0.3
	c0.4-0.2,0-0.5,0-0.7c0-0.2,0.1-0.4,0.1-0.5c0.3-0.1,0.7-0.2,1-0.2c0.8,0.2,1.6,0.4,2.5,0.7c0.2,0.1,0.4,0.2,0.5,0.4
	c0.2,0.6,0.6,0.9,0.9,1.3c0.4,0.6,0.9,1.1,1.6,0.9c0.3-0.1,0.6,0.2,0.6,0.7c3.7,0,7.3,0,11,0c0-16.5,0-33,0-49.4
	c-0.2,0-0.3-0.3-0.5,0c-0.1,0.1-0.4,0-0.5-0.1c-0.3-0.5-0.6-0.7-1-0.8c-0.5-0.2-0.9-0.5-1.1-1.2c-0.1-0.5-0.3-1-0.5-1.5
	c-0.2-0.5-0.7-0.9-0.9-0.7c-0.2,0.1-0.4,0.2-0.5,0.3c-0.2,0.1-0.3,0.3-0.5,0.4c0,0.1,0,0.1,0,0.2c0.4,0.2,0.7,0.4,1.2,0.7
	c-0.3,0.3-0.6,0.5-0.8,0.7c-0.1,0.1-0.2,0.4-0.3,0.6c0.1,0.1,0.2,0.2,0.4,0.2c0.5,0,1-0.1,1.5-0.1c0.2,0,0.4,0.1,0.6,0.2
	c0.3,0.2,0.3,0.7,0.2,1.1c-0.2,0.4-0.4,0.1-0.5-0.1c-0.2-0.2-0.9,0-1.1,0.2c0.1,0.2,0.2,0.4,0.1,0.6c-0.1,0.4-0.7,0.8-1,0.6
	c-0.4-0.3-0.7-0.5-1-0.9c-0.5-0.7-1.2-0.9-1.8-1c-0.4-0.1-0.9,0-1.4,0.1c-0.1,0-0.4,0.2-0.4,0.3c0,0.2,0,0.5,0.1,0.7
	c0.2,0.3,0.4,0.5,0.6,0.8c0.1,0.2,0.1,0.5,0.2,0.7c0.1,0.2,0.1,0.4,0.2,0.4c0.4,0.2,0.8,0.3,1.2,0.4c0.2,0.1,0.4,0.1,0.6,0.2
	c0.5,0.4,1,0.8,1.6,0.8c0.2,0,0.4,0.2,0.5,0.4c0.2,0.5,0.5,0.6,0.9,0.5c0.2-0.1,0.4-0.2,0.6-0.4c0.2,0.1,0.5,0.4,0.6,0.3
	c0.6-0.2,1,0.1,1.5,0.6c0.5,0.6,0.5,0.6,0,1c0,0-0.1,0-0.1,0c-0.3-0.4-0.7-0.4-1.1-0.1c-0.2,0.1-0.4,0.1-0.6,0.1
	c-0.3,0-0.6,0-0.8,0.2c-0.4,0.2-0.5,0.7-0.4,1.3c0.1,0.6-0.1,0.8-0.5,0.5c-0.3-0.2-0.4-0.1-0.4,0.4c0,0.4-0.1,0.7-0.2,1.1
	c0,0.1-0.2,0.2-0.3,0.3c-0.2,0-0.4,0-0.6,0c-0.1,0-0.2-0.1-0.3-0.2c0,0,0-0.2,0.1-0.3c0-0.1,0.1-0.2,0.1-0.3c-0.5-0.3-1-0.6-1.5-0.9
	c0,0.1,0,0.2,0,0.2c0.2,0.4,0.1,0.6-0.2,0.6c-0.3,0-0.5,0.1-0.9,0.2c0.2,0.3,0.3,0.5,0.4,0.7c0.1,0.2,0.3,0.3,0.3,0.5
	c0,0.3-0.2,0.4-0.4,0.4c-0.6-0.2-1.2-0.1-1.8-0.4c-0.9-0.4-1.9-0.6-2.8-0.9c-0.3-0.1-0.7-0.3-0.8-0.5c-0.1-0.2-0.2-0.4-0.4-0.5
	c-0.2-0.1-0.4-0.3-0.5-0.5c-0.2-0.4-0.4-0.9-0.5-1.3c0.1-0.2,0.2-0.5,0.3-0.9c0.2,0.2,0.4,0.3,0.5,0.5c0.2,0.3,0.4,0.3,0.7,0.1
	c0.5-0.5,1.2-0.2,1.6,0.5c0,0.1,0.1,0.2,0.2,0.2c0.4,0.4,0.8,0.3,1.2-0.2c0.2,0,0.4,0,0.5-0.1c0.2-0.2,0.3-0.4,0.3-0.7
	c0.1-0.3,0.3-0.8,0-1c-0.4-0.3-0.8-0.4-1.2-0.5c-0.2-0.1-0.4,0-0.5-0.4c0-0.1-0.2-0.1-0.3-0.1c0,0-0.1,0.1-0.1,0.2
	c0,0.1,0.1,0.2,0.1,0.3c0.1,0.1,0.1,0.1,0.2,0.2c-0.2,0.2-1.1-0.1-1.2-0.4c-0.1-0.6-0.4-1-0.9-1.1c-0.1,0-0.2-0.2-0.3-0.4
	c0.1-0.1,0.1-0.2,0.2-0.3c0.4-0.2,0.9-0.3,1.3-0.4c-0.4-0.3-0.8-0.6-1.2-1c-0.4-0.4-0.8-0.8-1.2-1.2c-0.2-0.2-0.5-0.2-0.7-0.3
	c-0.1-0.1-0.3-0.1-0.3-0.2c-0.3-0.3-0.7-0.6-1.1-0.5c-0.1,0-0.1-0.1-0.2-0.2c0.2-0.2,0.5-0.3,0.6-0.5c0.1-0.1,0.2-0.4,0.2-0.5
	c-0.1-0.3-0.2-0.7-0.3-1c0-0.1-0.1-0.1-0.1-0.2c-0.3-0.3-0.5-0.5-0.8-0.8c-0.2-0.2-0.4-0.3-0.6-0.4c-0.1,0-0.3,0.2-0.3,0.3
	c0,0.2,0,0.5-0.2,0.5c-0.2,0-0.3-0.2-0.4-0.3c-0.1-0.1-0.3-0.2-0.4-0.3c-0.1-0.1-0.2-0.1-0.3-0.2c-0.4-0.4-0.8-0.4-1.2,0.1
	c-0.3,0.3-0.5,0.3-0.6-0.2c-0.1-0.2-0.1-0.4-0.3-0.5c-0.4-0.3-0.8-0.5-1.2-0.7c-0.5-0.2-0.7,0-0.7,0.7c0,0.2,0,0.4-0.1,0.5
	c-0.2,0.3-0.3,0.6-0.5,0.8c-0.2,0.1-0.6,0.1-0.8-0.3c0.3-0.3,0.4-0.6,0.2-1c-0.2-0.4-0.4-0.4-0.6-0.1c-0.2,0.3-0.4,0.5-0.6,0.9
	c-0.2,0.4-0.4,0.2-0.6,0.1c-0.1-0.1-0.3-0.3-0.3-0.5c0-0.8-0.2-1-0.8-0.9c-0.2,0.1-0.3,0-0.4-0.3c0-0.2-0.2-0.4-0.3-0.6
	c-0.1-0.1-0.1-0.2-0.2-0.3c-0.2-0.7-0.4-0.9-1.1-0.7c0.1,0.1,0.2,0.2,0.3,0.3c-0.1,0.1-0.2,0.2-0.3,0.3c-0.1-0.2-0.2-0.4-0.4-0.5
	c-0.6-0.2-1.1-0.9-1.8-0.8c-0.3,0-0.6,0-0.9-0.1c-0.2-0.1-0.3,0.1-0.3,0.4c0,0.8-0.3,1.5-0.6,2.2c-0.2,0.4-0.1,1,0.2,1.2
	c0.5,0.4,1,0.6,1.5-0.1c0.1-0.1,0.3,0,0.4-0.1c-0.1,0.1-0.2,0.3-0.3,0.4c-0.3,0.5-0.7,1-1,1.5c-0.1,0.1,0,0.2-0.1,0.4
	c0,0.7,0,0.7-0.6,0.5c-0.1,0-0.1,0-0.2,0c-0.7,0.1-1-0.7-1.6-1c-0.3-0.1-0.5-0.5-0.9-0.8c-0.1,1.4-0.1,2.7-0.5,3.8
	c0.4,0.2,0.5,0.8,0.2,1.3c-0.4,0.7-0.7,1.5-0.3,2.4c0,0.1-0.1,0.4-0.2,0.5c-0.3,0.4-0.5,0.8-0.6,1.4c0,0.4-0.3,0.8-0.5,1.2
	c-0.1,0.2-0.3,0.4-0.4,0.5c0.1,0.1,0.1,0.2,0.2,0.2c0.4,0.2,0.7,0.6,0.6,1.1c-0.1,0.7-0.6,1-1.1,0.9c-0.2-0.1-0.4,0.1-0.6,0.1
	c-0.1,0-0.3,0.1-0.4,0.1c-0.2,0.1-0.4,0.1-0.6,0.3c-0.4,0.4-0.7,0.4-0.8-0.3c0-0.1-0.2-0.3-0.3-0.3c-0.4,0-0.6-0.3-0.9-0.5
	c-0.3-0.3-0.6-0.8-1.1-0.6c-0.1,0.1-0.3-0.1-0.5-0.2c-0.3-0.1-0.6-0.2-0.9-0.3c-0.4-0.1-0.9-0.3-1.4-0.4c-0.5-0.1-0.9-0.4-1.4,0
	c-0.2,0.1-0.3,0.3-0.1,0.6c0.2,0.4,1.3,1,1.6,0.9c0,0,0.1-0.1,0.1-0.1c0.3-0.3,0.6-0.4,0.8,0.1c0.1,0.2,0.3,0.4,0.1,0.6
	c-0.1,0.1-0.3,0-0.5-0.1c-0.1,0-0.3-0.2-0.4-0.2c0,0,0,0.1-0.1,0.1c0,0.2,0.1,0.3,0.1,0.4c-0.2,0.3-0.3,0.5-0.4,0.7
	c-0.2,0.3-0.4,0.8-0.9,0.4c-0.1-0.1-0.2,0-0.3,0c-0.8-0.2-1.5,0.5-2.3,0.2c-0.3-0.1-0.3,0.2-0.2,0.5c0.2,0.4,0.2,0.7-0.2,0.9
	c-0.1,0-0.1,0.2-0.1,0.3c0,0,0.1,0,0.1,0c0.1,0.3,0.1,0.5,0.2,0.8c0,0.2,0.1,0.3,0.2,0.4c0.2,0.2,0.3,0.3,0.5,0.5
	c-0.1,0.2-0.2,0.3-0.2,0.4c-0.1,0.2-0.5,0.1-0.4,0.6c0.1,0.3,0.1,0.6,0.3,0.9c0.2,0.2,0.4,0.3,0.6,0.6c0.1,0.2,0.3,0.4,0.3,0.6
	c0,0.1-0.2,0.3-0.3,0.5c-0.1-0.2-0.2-0.3-0.3-0.5c-0.1-0.1-0.2-0.3-0.3-0.3c-0.1,0-0.2,0.2-0.2,0.3c-0.2,0.7-0.5,0.9-1,0.7
	c-0.2,0-0.3,0-0.5,0c-0.3,0.1-0.5,0.1-0.7-0.2c-0.1-0.1-0.4-0.1-0.6-0.1c-0.1,0-0.2,0.1-0.5,0.2c0.1-0.4,0.1-0.6,0.1-0.9
	c0.2-0.5,0-0.7-0.4-0.7c-0.5,0-0.3,0.4-0.3,0.8c-0.8-0.1-1.6-1-2.2,0.3c-0.2-0.4-0.4-0.3-0.6-0.2c-0.4,0.2-0.8,0.2-1.3,0.3
	c-0.2,0-0.5,0.2-0.6,0.1c-0.3-0.2-0.6-0.1-0.8,0.1c-0.2,0.2-0.4,0.6-0.6,0.9c0,0,0.1,0.2,0.1,0.3c0,0.2,0.1,0.5,0.1,0.7
	c0,0.2-0.2,0.4-0.3,0.6c-0.1,0.1-0.2,0.2-0.3,0.2c-0.4-0.1-0.9-0.2-1.3-0.4c-0.4-0.2-0.7-0.3-1.1-0.5c-0.6-0.5-1.3,0-1.9,0.3
	c-0.3,0.1-0.5,0.4-0.9,0.1c-0.1-0.1-0.2-0.1-0.3,0c-0.3,0.3-0.6,0-0.8-0.1c-0.2-0.1-0.4-0.2-0.6-0.4c-0.1-0.1-0.3-0.2-0.4-0.4
	c-0.2-0.3-0.4-0.6-0.8-0.5c-0.7,0.1-1.5-1.1-1.2-2.1c-0.3,0-0.5,0.1-0.7,0.1c-0.1,0-0.3,0.1-0.4,0c-0.3-0.1-0.6-0.2-0.9-0.3
	c-0.4-0.1-0.7-0.2-1.1-0.3c-0.3,0-0.7,0-1,0c-0.2,0-0.3,0.1-0.5,0.1c-0.5,0-1-0.1-1.4-0.1c-0.1,0-0.2,0.2-0.3,0.4
	c-0.1,0.1-0.1,0.2-0.1,0.4c-0.1-0.1-0.3-0.1-0.3-0.2c-0.1-0.3-0.3-0.4-0.6-0.3c-0.5,0.2-0.8,0-0.9-0.7c-0.1-0.6-0.4-0.7-0.7-0.8
	c-0.4-0.1-1-0.1-1.3-0.5c-0.4-0.4-0.8-0.5-1.2-0.7c-0.6-0.4-1.4-0.1-1.9,0.5c-0.1,0.1-0.2,0.2-0.4,0.2c-0.3,0.1-0.6,0.1-0.9,0.2
	c-0.4,0.2-0.7,0.5-1.1,0.6c-0.4,0.1-0.4,0.3-0.4,0.7c0,0.6-0.4,1.3-0.8,1.3c-0.6,0-0.9,0.6-1.1,1.3c0,0.1-0.1,0.3-0.2,0.4
	c-0.5,0.2-1,0.3-1.4,0.4c-0.4,0-0.7,0.2-1,0.7c-0.2,0.6-0.7,0.6-1.1,0.6c0,0-0.2-0.3-0.1-0.4c0-0.2,0.2-0.4,0.2-0.5
	c0,0,0-0.1-0.1-0.1c-0.2,0.1-0.4,0.1-0.6,0.2c-0.5,0.2-0.7-0.2-0.6-0.7c0-0.2,0-0.4-0.1-0.6c-0.2-0.3-0.4-0.4-0.7-0.3
	c-0.2,0.1-0.5,0-0.8-0.2c-0.1,0,0-0.4,0-0.6c0-0.1-0.2-0.4-0.2-0.3c-0.2,0-0.4,0.2-0.6,0.3c-0.1,0.1-0.2,0.3-0.3,0.3
	c-0.5-0.2-0.6,0.4-1,0.6c0.2,0.1,0.4,0.2,0.4,0.3c0.1,0.5,0.6,0.8,0.3,1.5c-0.2,0.4-0.2,1-0.3,1.4c-0.1,0.4-0.4,0.4-0.5,0
	c-0.2-0.5-0.5-0.6-0.9-0.3c-0.1,0.1-0.3,0.1-0.5,0.1c-0.4,0-0.9-0.1-1.2,0.1c-0.3,0.2-0.5,0.3-0.7,0.1c0,9.3,0,18.7,0,28 M108.2,100
	c0-0.3,0-0.6,0.1-0.9c0-0.3-0.1-0.4-0.3-0.3c-0.4,0.1-0.9-0.2-1.3,0.3c0,0-0.1,0-0.1,0c-0.2-0.6-0.6-0.5-0.9-0.3c0,0-0.1,0-0.1,0
	c-0.4-0.3-0.6-0.1-1,0.3 M106.7,70.5c-0.1-0.2-0.3-0.4-0.4-0.7c0.2-0.1,0.3-0.1,0.4-0.2c-0.2-0.6-0.2-0.7,0.3-0.8
	c0.3-0.1,0.6-0.1,0.8-0.4c0.6-0.7,1-0.8,1.7-0.3c0.1,0.1,0.2,0.1,0.3,0.1c0.5,0.1,0.6,0.3,0.5,0.9c0,0.2,0,0.5,0.1,0.6
	c0.2,0.3,0.2,0.4,0,0.7c-0.3,0.3-0.3,0.8,0,1c0.1,0.1,0.3,0.2,0.4,0.3c0.2,0.2,0.4,0.4,0.7,0.5c0.5,0.2,1,0.3,1.5,0.4
	c0.2,0,0.4,0.1,0.5,0c0.5-0.3,0.9-0.6,1.4,0.1c0.3-0.6,0.6-0.8,1.2-0.6c0.7,0.3,1.4,0.4,2.1,0.3c0.1,0,0.1,0,0.2,0
	c0.1,0,0.2,0.1,0.2,0.2c0,0.1-0.1,0.3-0.1,0.4c-0.3,0.1-0.6,0.1-0.9,0.2c-0.1,0-0.3,0.1-0.3,0.1c0,0.2,0,0.3,0.1,0.5
	c0.1,0.3,0.2,0.6,0.4,0.9c0.2,0.1,0.4,0.2,0.7,0.3c-0.2,0.3-0.3,0.5-0.4,0.6c0.1,0.2,0.2,0.4,0.2,0.6c-0.1,0.6,0.2,0.7,0.5,0.9
	c0.1,0.1,0.3,0.1,0.4,0.1c0.4,0.3,1.2-0.2,1.1,1.1c0,0,0,0.1,0.1,0.1c0.4,0.3,0.8,0.8,1.3,0.9c0.4,0.1,0.6,0.4,0.7,0.9
	c0,0.1,0.3,0.3,0.3,0.2c0.5-0.6,0.6,0.1,0.9,0.4c0.2,0.3,0.1,0.8-0.2,0.9c-0.4,0.1-0.9,0.4-1.3-0.2c0-0.1-0.2-0.1-0.2,0
	c-0.4,0.3-0.7,0-1.1-0.1c-0.3-0.2-0.6-0.4-0.9-0.5c-0.3-0.1-0.6,0.1-0.9,0.2c-0.1,0,0,0.4,0,0.6c0.1,0,0.1,0.1,0.1,0.1
	c0.5-0.1,0.8,0.5,1.2,0.6c0.2,0.1,0.3,0.3,0.5,0.6c0.1,0.1,0.1,0.3,0,0.4c-0.2,0.5-0.8,0.7-1.2,0.4c-0.1-0.1-0.3-0.1-0.4-0.1
	c-0.4,0.1-0.8-0.1-1.1-0.5c-0.3-0.5-0.6-0.2-0.9-0.2c0.1,0.4,0.2,0.8,0.1,0.9c-0.3,0.4-0.3,0.8-0.2,1.3c-0.1,0.1-0.1,0.1-0.2,0.1
	c-0.1,0.2-0.3,0.4-0.3,0.6c0,0.4,0.3,0.1,0.4,0.2c0.2,0.1,0.4,0.2,0.5,0.4c0.1,0.5,0.3,0.7,0.6,0.6c0.2,0,0.4,0,0.5,0.1
	c0.5,0.1,0.9,0.2,1.2-0.6c0.1-0.4,0.3-0.8,0.5-1.2c0.3,0.6,0.6,0.1,1,0.2c0.4,0.1,0.7-0.1,0.9-0.5c0.2-0.4,0.7-0.5,0.7-1.2
	c0-0.3,0.2-0.1,0.3,0.1c0.3,0.5,0.6,1.1,1.1,1.2c0.4,0,0.6,0.2,0.7,0.7c0.1,0.3,0.8,0.5,1,0.4c0.1-0.1,0.1-0.2,0.1-0.3
	c-0.2-0.5,0.1-0.8,0.3-0.9c0.4-0.2,0.8-0.4,1.2-0.6c0,0,0.1,0,0.1,0c0.4,0.1,0.7,0.1,1.1,0.3c0.3,0.1,0.5,0.3,0.8,0.6
	c0.1,0.1,0.1,0.3,0.1,0.4c-0.1,0-0.2,0-0.3,0.1c-0.3,0.1-0.7,0.2-1,0.3c0.1,0.3,0.2,0.5,0.2,0.6c-0.1,0.2-0.3,0.4-0.4,0.6
	c0,0.2,0,0.4,0.1,0.6c0.4,0.9,0.9,1.7,1.5,2.3c0.4,0.4,0.7,0.9,0.8,1.7c-0.2,0-0.3-0.1-0.4,0c-0.8,0.2-1.6,0.1-2.3-0.2
	c-0.4-0.2-0.8-0.6-1.2-0.9c-0.3-0.2-0.5-0.3-0.9-0.2c-0.3,0.1-0.6-0.1-0.7,0.5c0,0.1-0.1,0.1-0.2,0.1c-0.5-0.4-0.8,0.4-1.3,0.5
	c-0.1,0-0.2,0.3-0.1,0.4c0.3,0.5,0.6,0.9,0.9,1.3c0,0.1,0.2,0,0.3,0c-0.1-0.2-0.2-0.3-0.3-0.5c0.2-0.5,0.4-0.5,0.9-0.3
	c0.2,0.1,0.5,0.1,0.6-0.1c0.4-0.5,0.8-0.7,1.3-0.4c0.5,0.3,0.9,0.6,1.3,0.9c0.1,0.1,0.2,0.3,0.3,0.5c-0.3,0.1-0.6,0.2-0.8,0.4
	c-0.2,0.2-0.4,0.5-0.4,0.8c0,0.6,0.8,1,1.2,0.7c0.1-0.1,0.2,0,0.3,0c0.1,0,0.3,0.2,0.4,0.2c0.4,0,0.4,0.4,0.4,0.7
	c0,0.1-0.3,0.2-0.5,0.2c-0.1,0.1-0.3,0.1-0.4,0.2c-0.1,0.7-0.6,0.6-0.8,0.5c-0.4-0.3-0.7,0.1-1,0.1c0.1,0.1,0.1,0.2,0.1,0.2
	c0.1,0.2,0.2,0.5,0.1,0.7c-0.1,0.2-0.3,0.3-0.5,0.3c-0.3,0-0.6-0.1-0.9,0c-0.3,0-0.6,0.2-0.9,0.3c-0.1,0-0.2,0.1-0.3,0.1
	c-0.3,0.1-0.6,0.1-0.8,0.2c-0.8,0.4-1.3,0-1.2-1.2c0-0.2,0-0.5-0.1-0.8c-0.2-0.4,0-0.6,0.1-0.9c0.2-0.4,0.3-0.8,0.5-1.2
	c-0.2,0-0.3,0-0.4,0c-0.5,0.1-1,0.1-1.5,0.2c-0.4,0-0.5-0.3-0.6-0.7c0-0.3-0.1-0.6-0.1-0.9c-0.1-0.4-0.5-0.6-0.8-0.4
	c-0.2,0.1-0.3,0.2-0.5,0.4c-0.3,0.2-0.4,0.6-0.4,1.1c0,0.4-0.1,0.7-0.1,1.2c-0.1-0.2-0.2-0.2-0.2-0.3c-0.2-0.4-0.4-0.7-0.8-0.7
	c-0.2,0-0.7,0-0.8-0.6c0-0.2-0.2-0.5-0.2-0.5c-0.2,0.1-0.4,0.2-0.5,0.4c-0.1,0.1-0.1,0.3-0.1,0.5c0.3,0.2,0.6,0.3,0.7,0.9
	c-0.3-0.1-0.4-0.1-0.6-0.2c-0.3-0.1-0.5-0.3-0.7-0.5c-0.2-0.1-0.4-0.7-0.2-0.9c0.2-0.4,0.1-0.5-0.2-0.6c-0.2-0.1-0.4-0.1-0.6-0.2
	c0,0.2,0,0.4,0.1,0.6c0.1,0.4,0.3,0.8,0.3,1.2c0,0.2,0,0.5-0.1,0.7c-0.3,0.6-1.1,0.6-1.6,0.3c-0.3-0.3-0.7-0.4-1.1-0.6
	c0,0-0.1,0.1-0.1,0.1c0.1,0.4,0.2,0.7,0.3,1.1c0.1,0.2,0.1,0.5,0.1,0.6c-0.2,0.2-0.4,0.5-0.7,0.5c-0.6,0-1.1-1.2-0.9-2
	c0.1-0.4,0.2-0.8-0.2-1.1c-0.1-0.1-0.1-0.3-0.1-0.5c0-0.5-0.1-0.8-0.5-0.8c-0.7,0-1.5-0.2-2.2-0.4c-0.5-0.2-1-0.2-1.3,0.7
	c-0.1,0.3-0.4,0.6-0.7,0.3c-0.1-0.1-0.4-0.1-0.5,0c-0.2,0.2-0.5,0.4-0.6,0.7 M107.8,74.3 M141.4,81.1c0,0-0.1,0.1-0.1,0.1
	c-0.6,0-1.1,0.3-1.6,0.4c-0.5,0.1-1-0.1-1.4-0.2c-0.2-0.1-0.5-0.3-0.7-0.3c-0.6,0-1.2,0-1.7,0c-0.1,0-0.3-0.1-0.4,0
	c-0.4,0.3-0.6,0.1-0.9-0.3c-0.2-0.3-0.6-0.4-0.7-0.1c-0.6,0.9-1.4,0.6-2.1,0.6c-0.3,0-0.6,0.1-1,0.1c-0.1,0-0.3,0-0.4-0.1
	c-0.3-0.3-1.1-0.5-1.4-0.3c-0.4,0.4-1.2,0.4-1.6,0c-0.2-0.2-0.2-0.5-0.2-0.8c0-0.1,0.3-0.2,0.4-0.3c0.1-0.1,0.2-0.1,0.3-0.2
	c0.2-0.5,0.5-0.3,0.7,0c0.3,0.3,0.6,0.4,0.8,0c0.3-0.5,0.6-0.5,1-0.4c0.3,0.1,0.7,0.2,0.9-0.1c0.3-0.4,0.9-0.2,0.9-1c0,0,0,0,0,0
	c0.4,0,0.5-0.4,0.7-0.7c0.1-0.1,0.2-0.1,0.3-0.1c0.3,0,0.7,0.1,1.1,0.2c0.3-0.5,0.4-0.5,1-0.2c0.4,0.2,0.8,0.2,1.2,0.3
	c0,0,0,0.1,0.1,0.1c0.3,0.4,0.6,0.7,1,0.6c0.1,0,0.4,0,0.5,0.2c0.5,0.8,1.4,0.4,2,1c0.1,0,0.2-0.1,0.3-0.1c0.2-0.1,0.5-0.2,0.6,0.2
	c0.1,0.3,0.1,0.7,0.2,1C141.2,80.8,141.3,80.9,141.4,81.1z M129.6,56.5c0.4,0.8,0.4,0.8,0.9,0.2c0.2-0.2,1.3,0,1.4,0.3
	c0,0.1,0,0.3,0,0.4c-0.1,0.3-0.2,0.6-0.2,0.9c0,0.6-0.3,0.8-0.6,0.9c-0.2,0.1-0.5,0-0.7-0.1c-0.3-0.4-0.5-0.4-0.8,0.2
	c-0.1,0.1-0.2,0.3-0.3,0.3c-0.8-0.2-1.6-0.2-2.1-1.4c0.6,0.4,1.2,0.8,1.9,0.7c-0.2-0.5-0.4-1-0.6-1.6c0.2-0.1,0.4-0.1,0.6-0.2
	c-0.3-0.3-0.6-0.5-1-0.1c-0.1,0.1-0.2,0-0.3,0c-0.1-0.2-0.2-0.5-0.3-0.7c0,0,0.2-0.2,0.3-0.2c0.4-0.1,0.7-0.4,1.1,0.1
	c0,0,0.1,0,0.2,0c-0.1-0.1-0.1-0.2-0.2-0.4c0-0.2-0.1-0.5-0.1-0.6c0.2-0.1,0.4-0.3,0.6-0.2c0.2,0,0.4,0.3,0.5,0.5
	c0.1,0.2,0.2,0.5,0.2,0.7C129.9,56.2,129.8,56.3,129.6,56.5z M133.8,61.9c0,0.1,0,0.2-0.1,0.3c-0.2,0-0.5,0-0.7,0
	c-0.2,0-0.5,0-0.7-0.1c-0.5,0-0.9,0-1.4,0c-0.1,0-0.2-0.1-0.3-0.2c-0.5-0.4-1-0.7-1.5-1.1c-0.1-0.1-0.2-0.3-0.2-0.4
	c0-0.5,0.3-0.5,0.6-0.4c1,0.1,2,0.6,3,1.1C133,61.3,133.4,61.7,133.8,61.9z M149.1,62.3c0,0.1,0,0.1-0.1,0.2
	c-0.7-0.1-1.4-0.2-2.1-0.3c-0.4-0.1-0.9-0.2-1.3-0.3c-0.3-0.1-0.7-0.2-1-0.3c-0.1,0-0.2-0.3-0.1-0.4c0-0.1,0.2-0.2,0.3-0.2
	c0.5,0,0.9,0.1,1.4,0.1c0.4,0,0.9-0.1,1.2,0.4c0.1,0.1,0.1,0.2,0.2,0.2c0.4,0.1,0.8,0.2,1.1,0.4C148.9,62,149,62.2,149.1,62.3z
	 M128.6,54.1c-0.1,0.5-0.4,0.6-0.6,0.5c-0.6-0.2-1.2,0.1-1.7-0.6c0.3-0.6,0.6-0.8,0.9-0.6C127.7,53.5,128.1,53.8,128.6,54.1z
	 M132.1,86.6c-0.4-0.1-0.8-0.1-1.2-0.3c-0.3-0.2-0.6-0.6-0.9-1c0.6,0,1,0,1.4,0C131.9,85.4,132.2,86,132.1,86.6z M103.2,67
	c0-0.1,0.1-0.4,0.1-0.5c0.3-0.1,0.5-0.1,0.6-0.3c0.3-0.5,0.6-0.1,0.9-0.1c0.1,0,0.3,0.4,0.4,0.8c-0.3,0-0.4,0-0.6,0
	c-0.1,0-0.3,0-0.3,0c-0.2,0.4-0.4,0.1-0.6,0.1C103.6,67.1,103.4,67,103.2,67z M115.3,57.9c0,0-0.1,0.1-0.1,0.1
	c0.1,0.2,0.2,0.5,0.3,0.7c0.3,0.2,0.5,0.6,0.4,1c-0.3-0.1-0.5-0.2-0.8-0.3c-0.1,0-0.2-0.1-0.2-0.2c-0.1-0.4-0.2-0.8-0.2-1.2
	C115,57.9,115.1,57.9,115.3,57.9z M124.8,53.5c-0.1,0-0.1,0-0.2,0c-0.1-0.3-0.2-0.5-0.3-0.8c-0.2-0.5-0.1-0.7,0.3-0.8
	c0.2,0.3,0.4,0.5,0.4,0.8C125.1,52.8,124.9,53.2,124.8,53.5z M141.9,67.4c0.2-0.3,1.5-0.3,1.6-0.1c0.1,0.1,0.1,0.2,0.2,0.4
	c0,0.1-0.1,0.2-0.2,0.2C143,67.6,142.4,67.5,141.9,67.4z M127,57.7c0,0.1,0,0.2,0,0.3c-0.2,0-0.4,0-0.5,0c0,0,0-0.3-0.1-0.4
	C126.6,57.6,126.8,57.7,127,57.7z M143.4,61.9c0-0.1,0-0.2,0-0.3c0.2-0.3,0.4,0.1,0.6,0.2c0,0.1,0,0.1,0,0.2
	C143.8,61.9,143.6,61.9,143.4,61.9z"/>
<path class="st2" d="M49.9,72c0.3,0.2,0.5,0.1,0.7-0.1c0.3-0.2,0.8-0.1,1.2-0.1c0.2,0,0.4,0,0.5-0.1c0.4-0.3,0.6-0.2,0.9,0.3
	c0.2,0.4,0.4,0.4,0.5,0c0.2-0.5,0.1-1,0.3-1.4c0.3-0.7-0.2-1-0.3-1.5c0-0.1-0.2-0.2-0.4-0.3c0.4-0.2,0.5-0.8,1-0.6
	c0.1,0,0.2-0.2,0.3-0.3c0.2-0.1,0.4-0.2,0.6-0.3c0.1,0,0.2,0.2,0.2,0.3c0,0.2,0,0.6,0,0.6c0.2,0.1,0.5,0.2,0.8,0.2
	c0.3-0.1,0.6,0,0.7,0.3c0.1,0.2,0.1,0.4,0.1,0.6c-0.1,0.6,0.2,0.9,0.6,0.7c0.2-0.1,0.4-0.1,0.6-0.2c0,0,0,0.1,0.1,0.1
	c-0.1,0.2-0.2,0.3-0.2,0.5c0,0.1,0.1,0.4,0.1,0.4c0.4-0.1,0.8-0.1,1.1-0.6c0.2-0.5,0.5-0.7,1-0.7c0.5,0,1-0.2,1.4-0.4
	c0.1,0,0.2-0.2,0.2-0.4c0.2-0.7,0.5-1.2,1.1-1.3c0.4,0,0.8-0.7,0.8-1.3c0-0.4,0.1-0.6,0.4-0.7c0.4-0.1,0.7-0.4,1.1-0.6
	c0.3-0.1,0.6-0.1,0.9-0.2c0.1,0,0.3-0.1,0.4-0.2c0.5-0.6,1.3-0.9,1.9-0.5c0.4,0.3,0.8,0.3,1.2,0.7c0.3,0.3,0.8,0.3,1.3,0.5
	c0.3,0.1,0.6,0.2,0.7,0.8c0.1,0.7,0.4,0.9,0.9,0.7c0.3-0.1,0.4,0,0.6,0.3c0.1,0.1,0.2,0.1,0.3,0.2c0-0.1,0-0.3,0.1-0.4
	c0.1-0.1,0.2-0.4,0.3-0.4c0.5,0,1,0.1,1.4,0.1c0.2,0,0.3-0.1,0.5-0.1c0.3,0,0.7,0,1,0c0.4,0.1,0.7,0.2,1.1,0.3
	c0.3,0.1,0.6,0.2,0.9,0.3c0.1,0,0.3,0,0.4,0c0.2,0,0.4-0.1,0.7-0.1c-0.3,1,0.5,2.2,1.2,2.1c0.4-0.1,0.6,0.1,0.8,0.5
	c0.1,0.2,0.3,0.3,0.4,0.4c0.2,0.1,0.4,0.3,0.6,0.4c0.3,0.1,0.5,0.4,0.8,0.1c0.1-0.1,0.2-0.1,0.3,0c0.3,0.3,0.6,0,0.9-0.1
	c0.6-0.3,1.3-0.8,1.9-0.3c0.4,0.3,0.7,0.4,1.1,0.5c0.4,0.2,0.9,0.3,1.3,0.4c0.1,0,0.2-0.1,0.3-0.2c0.1-0.2,0.3-0.4,0.3-0.6
	c0-0.2,0-0.5-0.1-0.7c0-0.1-0.2-0.3-0.1-0.3c0.2-0.3,0.3-0.7,0.6-0.9c0.2-0.1,0.5-0.3,0.8-0.1c0.2,0.1,0.4,0,0.6-0.1
	c0.4-0.1,0.9-0.1,1.3-0.3c0.3-0.1,0.5-0.2,0.6,0.2c0.6-1.3,1.4-0.4,2.2-0.3c0-0.4-0.2-0.9,0.3-0.8c0.4,0,0.5,0.2,0.4,0.7
	c-0.1,0.2-0.1,0.5-0.1,0.9c0.2-0.1,0.4-0.2,0.5-0.2c0.2,0,0.5,0,0.6,0.1c0.2,0.4,0.4,0.3,0.7,0.2c0.2,0,0.3-0.1,0.5,0
	c0.5,0.1,0.8-0.1,1-0.7c0-0.1,0.2-0.3,0.2-0.3c0.1,0,0.2,0.2,0.3,0.3c0.1,0.1,0.2,0.3,0.3,0.5c0.1-0.2,0.3-0.3,0.3-0.5
	c0-0.2-0.2-0.4-0.3-0.6c-0.2-0.2-0.5-0.3-0.6-0.6c-0.1-0.2-0.2-0.6-0.3-0.9c-0.1-0.5,0.3-0.4,0.4-0.6c0.1-0.1,0.1-0.2,0.2-0.4
	c-0.2-0.2-0.4-0.3-0.5-0.5c-0.1-0.1-0.2-0.3-0.2-0.4c-0.1-0.2-0.1-0.5-0.2-0.8c0,0-0.1,0-0.1,0c0-0.1,0.1-0.2,0.1-0.3
	c0.3-0.2,0.3-0.5,0.2-0.9c-0.1-0.3,0-0.6,0.2-0.5c0.8,0.2,1.5-0.5,2.3-0.2c0.1,0,0.2,0,0.3,0c0.5,0.4,0.6-0.1,0.9-0.4
	c0.1-0.2,0.3-0.4,0.4-0.7c0-0.1-0.1-0.2-0.1-0.4c0,0,0-0.1,0.1-0.1c0.1,0.1,0.3,0.2,0.4,0.2c0.2,0.1,0.4,0.2,0.5,0.1
	c0.2-0.2,0.1-0.4-0.1-0.6c-0.3-0.5-0.5-0.5-0.8-0.1c0,0-0.1,0.1-0.1,0.1c-0.3,0.1-1.4-0.5-1.6-0.9c-0.1-0.3-0.1-0.4,0.1-0.6
	c0.5-0.4,0.9-0.1,1.4,0c0.5,0.1,0.9,0.2,1.4,0.4c0.3,0.1,0.6,0.2,0.9,0.3c0.2,0.1,0.4,0.2,0.5,0.2c0.5-0.2,0.7,0.3,1.1,0.6
	c0.3,0.2,0.5,0.5,0.9,0.5c0.1,0,0.3,0.2,0.3,0.3c0.2,0.6,0.4,0.7,0.8,0.3c0.2-0.2,0.4-0.2,0.6-0.3c0.1-0.1,0.3-0.1,0.4-0.1
	c0.2-0.1,0.4-0.2,0.6-0.1c0.5,0.2,1-0.2,1.1-0.9c0.1-0.5-0.2-0.9-0.6-1.1c0,0.1,0.1,0.3,0.1,0.4c-0.5,0.3-1,0.2-1.4-0.3
	c-0.2-0.3-0.6-0.4-0.9-0.5c-0.2-0.1-0.5,0-0.8-0.1c-0.2-0.1-0.3-0.3-0.5-0.5c0.1-1-0.3-1.7-1-2.1c-0.4-0.2-0.6-0.1-0.8,0.5
	c-0.1,0.3-0.2,0.5-0.4,0.9c-0.2-0.2-0.3-0.3-0.5-0.5c-0.3-0.3-0.8-0.3-1,0c0,0.1-0.1,0.2-0.1,0.3c0.1,0.4-0.1,0.5-0.3,0.5
	c-0.4-0.2-0.8-0.5-1.2-0.7c-0.1-0.1-0.3-0.3-0.2-0.4c0.1-0.9-0.5-1.7-1.1-1.7c-0.2,0-0.4-0.2-0.6-0.2c-0.3,0.1-0.6,0.3-0.9,0.4
	c-0.2,0.1-0.3,0.1-0.5,0.2c0,0,0-0.1,0-0.1c0.1-0.1,0.2-0.2,0.3-0.3c0-0.1,0-0.1,0-0.2c-0.3,0-0.5-0.1-0.8,0
	c-0.6,0.2-0.9,0.2-1.3-0.3c-0.4,0.1-0.7,0.3-0.9,0.9c0,0.2-0.5,0.2-0.8,0.1c-0.6-0.1-1.1-0.4-1.6-0.6c0,0-0.1-0.1-0.2-0.2
	c0.3-0.1,0.5-0.3,0.7-0.4c-0.6-0.2-1.2-0.4-1.7-0.1c-0.2,0.1-0.3,0.4-0.3,0.7c0,0.1,0.2,0.2,0.3,0.4c0.1,0.1,0.2,0.2,0.2,0.3
	c0.1,0.6,0.5,0.6,0.8,0.6c0.7,0,1.1,0.5,1.4,1.1c0,0.1,0,0.4-0.1,0.4c-0.1,0.1-0.2,0-0.4,0c-1-0.3-1.9-0.5-2.9-0.8
	c-0.1,0-0.2,0-0.3,0c-1,0-1.9-0.3-2.9-0.6c-0.2-0.1-0.4-0.1-0.5,0c-0.1,0.1-0.2,0.3-0.2,0.5c-0.1,0.3-0.1,0.6-0.2,0.9
	c-0.3,0.2-0.5,0-0.7-0.3c-0.3-0.3-0.6-0.6-0.9-0.9c-0.1-0.1-0.2,0-0.2,0c0,0.4,0,0.7,0,0.9c0,0.1,0.1,0.3,0.2,0.4
	c0.1,0.2,0.2,0.3,0.2,0.4c-0.1,0.1-0.1,0.1-0.1,0.1c-0.9-0.6-1.8,0-2.6-0.1c-0.2,0-0.3,0.1-0.5,0.1c-0.3,0.1-0.5,0.2-0.6-0.3
	c0-0.2-0.3-0.3-0.5-0.4c-0.3-0.2-0.7-0.4-1-0.5c-0.2-0.1-0.5-0.1-0.7-0.1c-0.2,0-0.4,0.1-0.5,0c-0.4-0.3-0.9-0.7-1.3-1.1
	c-0.1-0.2-0.2-0.5-0.2-0.8c0.2-0.4,0.7,0.2,0.9-0.4c-0.3-0.1-0.7-0.1-1.1-0.2c0.2-0.1,0.4-0.2,0.6-0.4c-0.3-0.2-0.5-0.3-0.7-0.4
	c0,0.1,0,0.1,0,0.2c-0.2,0.1-0.5,0.3-0.7,0.4c-0.1,0.1-0.3,0.2-0.3,0.3c-0.1,1-0.8,1.2-1.2,1.9c-0.2,0.3-0.6,0.2-0.9,0.3
	c-0.1,0.1-0.4,0.1-0.4,0.2c-0.1,0.3,0.1,0.4,0.3,0.5c0,0,0.1,0,0.1,0c0.5,0.3,1,0.8,1.5,0.1c0,0,0.1,0,0.1,0
	c0.4,0.5,0.8,0.2,1.2,0.2c0.2,0,0.5,0,0.7,0.4c0.1,0.2,0.3,0.2,0.5,0.3c-0.5,1.3,0.5,0.5,0.8,1c-0.5-0.1-0.7,0.3-0.8,0.9
	c0,0.1-0.2,0.2-0.3,0.3c-0.4,0-0.7,0-1.2,0c0,0.3-0.4,0.7,0,1.1c0,0,0,0.3-0.1,0.3c-0.3,0.1-0.3,0.3-0.3,0.6c0,0.4-0.3,0.4-0.4,0.3
	c-0.6-0.3-1.1-0.6-1.6-1c-0.5-0.4-0.9-0.9-1.4-1.4c0,0-0.1,0-0.1,0c-0.1,0.3-0.2,0.5-0.3,0.8c0,0-0.1,0-0.1,0c-0.1-0.5-0.4-1,0-1.7
	c-0.5-0.1-0.9-0.2-1.3-0.2c-0.4,0-0.6-0.3-0.6-0.7c-0.1-0.6,0.1-1,0.5-1.2c0.5-0.2,0.8-0.8,0.6-1.4c0-0.1-0.1-0.3-0.2-0.3
	c-0.4-0.2-0.6-0.5-0.7-1c-0.1-0.4-0.3-0.5-0.5-0.4c-0.3,0.1-0.5,0.1-0.7-0.2c-0.2-0.3-0.4-0.1-0.6,0.2c-0.2,0.2-0.5,0.4-0.7,0.5
	c-0.4,0.1-0.8,0.2-1.1,0.2c-0.1,0-0.3-0.2-0.4-0.3c-0.2-0.2-0.3-0.7-0.6-0.1c0,0-0.1,0-0.1,0c-0.4,0-0.6,0.4-0.5,0.9
	c0,0.2,0.1,0.4,0.2,0.7c0,0.3,0,0.6,0.1,1.1c0.3,0.4,0.2,1-0.4,1.3c-0.1,0.1-0.3,0.2-0.4,0.4c-0.1,0.1-0.2,0.3-0.3,0.3
	c-0.2,0.1-0.4,0.1-0.5,0.2c-0.1,0.3-0.2,0.7-0.2,1.1c0,0.2,0.2,0.4,0.3,0.6c0.1,0.1,0.2,0.2,0.3,0.3c-0.4,0.4-0.6,1-1.1,1.1
	c-0.1,0-0.1,0.1-0.2,0.2c-0.3,0.2-0.6,0.6-1,0.3c-0.1-0.1-0.4,0.2-0.8,0.3c0.2,0.2,0.3,0.4,0.4,0.4c0.3,0.1,0.7,0.1,1,0.1
	c0.2,0.1,0.4,0.2,0.5,0.4c0.2,0.3,0,0.5-0.2,0.7c-0.4,0.5-0.7,1.1-0.6,1.9c0,0,0,0.1,0,0.1c-0.4,0.3-0.8,0.7-1.2,0.7
	c-0.3,0-0.7-0.5-1-0.7c-0.1-0.1-0.3-0.3-0.4-0.5c-0.2-0.4-0.6-0.5-1-0.3c-0.3,0.1-0.6-0.1-0.9-0.2c-0.6-0.2-1.2-0.5-1.8-0.7
	c-0.1,0-0.3,0.2-0.4,0.3c-0.1,0.1-0.1,0.2-0.2,0.3c-0.6,0.1-1.3,0.5-1.9,0.2c-0.2-0.1-0.3-0.2-0.5-0.3c-0.4,0.4-0.6,0.9-0.7,1.6
	c0,0.1-0.2,0.4-0.2,0.4c-0.5,0-0.6,0.4-0.5,0.9c0,0,0,0.1,0,0.2c-0.1,0-0.3,0-0.5,0c0,0.2,0.1,0.5,0.1,0.7c0,0.1-0.1,0.3-0.2,0.4
	c-0.1-0.1-0.2-0.1-0.2-0.2c-0.1-0.2-0.2-0.6-0.4-0.7c-0.5-0.5-0.8-1.2-1.5-1.3C49.9,68.3,49.9,70.1,49.9,72z M96.1,65.6
	c-0.4-0.2-0.7-0.3-1-0.4c-0.2-0.1-0.6-0.1-0.6,0c-0.2,0.5-0.5,0.7-0.9,0.6c-0.1,0-0.2,0.1-0.3,0.1c-0.1,0-0.3-0.1-0.4-0.1
	c-0.2-0.1-0.4-0.2-0.5-0.2c-0.7-0.1-1.3,0.3-2-0.1c-0.2-0.2-0.4,0.1-0.5,0.4c0,0.2,0,0.3,0,0.5c-0.1,0.3-0.2,0.6-0.5,0.4
	c-0.4-0.3-0.7-0.7-1-1.1c0.2-0.2,0.3-0.3,0.4-0.4c0.1-0.1,0.2-0.3,0.3-0.4c0.1-0.1,0.2-0.2,0.2-0.2c0-0.1-0.1-0.3-0.1-0.4
	c-0.2-0.1-0.4-0.2-0.5-0.1c-0.3,0.1-0.3-0.1-0.4-0.3c-0.2-0.5-0.4-0.6-0.7-0.2c-0.1-0.1-0.3-0.2-0.4-0.3c0.2-0.3,0.5-0.5,0.5-0.7
	c0-0.3-0.3-0.5-0.4-0.8c0.4-0.3,0.7-0.6,1.1-0.9c-0.4-0.5-0.8-0.5-1.2-0.2c-0.3,0.2-0.6,0.4-1,0.6c-0.4,0.2-0.7,0.5-1.1,0.7
	c0.1,0.1,0.2,0.2,0.4,0.4c-0.2,0.1-0.4,0.2-0.6,0.2c-0.1-0.2-0.2-0.3-0.2-0.4c-0.2,0.1-0.5,0.2-0.7,0.3c0,0-0.1-0.1-0.1-0.1
	c0.1-0.3,0.1-0.6,0.2-0.8c0.2-0.3,0.5-0.5,0.8-0.7c0.4,0.6,0.6-0.3,1-0.1c0-0.1,0-0.2,0-0.2c-0.2-0.1-0.4-0.3-0.7-0.5
	c0.2-0.1,0.3-0.2,0.4-0.3c0.2-0.1,0.3-0.1,0.5-0.3c0.2-0.2,0.4-0.5,0.6-0.8c-0.1-0.1-0.3-0.2-0.5-0.4c0.2-0.1,0.5-0.2,0.7-0.1
	c0.4,0.1,0.7,0,0.8-0.5c0.1-0.6,0.4-0.7,0.8-0.7c0.6,0,1.2-0.1,1.7-0.4c0.2-0.1,0.4-0.3,0.6-0.4c0,0.1,0,0.1,0,0.2
	c0.2,0.1,0.5,0.3,0.7,0.3c0.3,0,0.7-0.2,0.9,0.3c0,0.1,0.2,0.1,0.2,0.1c1.1-0.4,2.1,0.2,3.1,0.3c0.6,0.1,1.1,0.2,1.7,0.1
	c0.5-0.1,1,0,1.3,0.6c0.1,0.2,0.1,0.4,0.1,0.6c0,0.2-0.2,0.3-0.4,0.4c-0.1,0.1-0.3,0.1-0.4,0.2c0.1,0.3-0.1,0.7,0.2,0.9
	c0.1,0.1,0.1,0.3,0.2,0.4c0,0-0.1,0.1-0.1,0.1c-0.3-0.1-0.5-0.3-0.8-0.4c-0.2-0.1-0.3-0.2-0.2-0.5c0-0.2-0.1-0.5-0.1-0.8
	c-0.4,0.6-0.4,0.6-0.8,0.2c-0.2-0.3-0.4-0.3-0.6,0.1c-0.2,0.4-0.5,0.4-0.8,0.2c-0.2-0.2-0.5-0.3-0.8-0.4c0.2,0.5,0.4,0.9,0.6,1.2
	c0.2,0.4,0.4,0.8,0.7,1c0.2,0.2,0.5,0.2,0.8-0.1c0.2-0.3,0.7-0.5,1-0.5c0.5,0.1,0.9,0.5,1.4,0.9c0.1,0.1,0.2,0.2,0.3,0.3
	c0,0.1,0,0.1-0.1,0.2c-0.2,0-0.4-0.1-0.6-0.1c-0.1,0-0.3,0.1-0.4,0.2c-0.1,0.3,0.3,0.9,0.5,1c0.1,0,0.2,0.2,0.2,0.3
	c-0.1,0.1-0.2,0.4-0.3,0.3c-0.3-0.1-0.5-0.3-0.8-0.5c-0.2-0.1-0.4-0.4-0.7-0.5c-0.3-0.1-0.6,0.1-0.8-0.4c0,0-0.1,0-0.2,0
	c-0.3,0-0.5,0-0.8,0c-0.4,0.1-0.5-0.3-0.6-0.6c-0.1-0.1-0.2-0.2-0.3-0.3c-0.3-0.3-0.6-0.5-0.8-0.8c-0.3-0.3-0.5-0.3-0.8,0.1
	c-0.1,0.2-0.5,0.6-0.5,0.5c-0.4-0.4-0.8-0.3-1.3-0.2c-0.4,0.1-0.7,0.2-0.9,0.5c-0.3,0.5-0.6,0.8-1,0.5c0,0,0,0-0.1,0.1
	c0.1,0.4,0.1,0.8,0.2,1.3c0.5-0.2,1.1-0.3,1.6-0.5c0.1,0,0.2-0.1,0.3-0.1c0.4,0.2,0.9,0.4,1.3,0.6c0.4-0.2,0.9-0.4,1.5-0.7
	c0.2,0.1,0.6,0.3,0.9,0.5c0.8-0.6,1.4-0.3,2,0.2c0.1,0.3,0.1,0.6,0.2,0.7c0.2,0.2,0.4,0.2,0.6,0.3c0.1,0.1,0.3,0.2,0.4,0.3
	c-0.1,0.1-0.1,0.3-0.2,0.4c-0.3,0.3-0.2,0.7,0.1,0.9c0.3,0.2,0.3,0.4,0.2,0.5c-0.3-0.1-0.6-0.4-0.7-0.3c-0.4,0.4-0.6,0.1-0.7-0.3
	c-0.2,0-0.4-0.1-0.7-0.1C96.1,65.8,96.1,65.7,96.1,65.6z M81,65c0,0.1,0.1,0.1,0.1,0.2c0.3,0.1,0.7,0.2,1,0.3
	c0.1,0.1,0.4,0.2,0.4,0.3c0,0.6,0.4,1,0.7,1.4c-0.1,0.1-0.2,0.3-0.3,0.5c-0.3-0.2-0.7-0.3-0.8-0.6c-0.3-0.6-0.7-0.8-1.2-0.7
	c-0.1,0-0.2-0.2-0.2-0.3C80.8,65.7,80.9,65.4,81,65z M85.4,66.5c-0.1-0.3,0.1-0.5,0.4-0.4c0.3,0.1,0.7,0.2,1,0.4
	c0.1,0.1,0.2,0.3,0.3,0.5c-0.4,0-0.8,0-1.1,0c0,0,0-0.1,0-0.1C85.8,66.7,85.7,66.6,85.4,66.5z M85.9,63c-0.3-0.6-0.3-0.6,0.5-1.1
	c0.1,0.3,0.3,0.5,0.4,0.9C86.5,62.9,86.2,63,85.9,63z"/>
<path class="st1" d="M0.1,100c-0.1-0.1-6.3-5.2-6.5-5.2c-0.3-0.1-0.6-0.2-0.9-0.1c-0.1,0-0.1,0.5-0.2,0.8c0,0.2-0.1,0.3-0.2,0.5
	c0,0-0.1,0-0.1-0.1c0-0.1,0-0.2-0.1-0.3c-0.1-0.2-0.2-0.4-0.3-0.5c-0.2-0.1-0.4,0-0.5,0.4c0,0.1-0.3,0.4-0.3,0.3
	c-0.5-0.4-0.8,0-1,0.4c-0.3,0-0.5-0.1-0.7,0c-0.3,0.2-0.3,1.3,0,1.6c0.2-0.2,0.4-0.4,0.6-0.7c0,0,0.1,0.1,0.1,0.1
	c0,0.2-0.1,0.4-0.2,0.6c0.4,0.4,0.9,0.8,1.3,1.2c-0.1,0.3-0.2,0.5-0.3,0.7c-6.8,0-13.6,0-20.3,0c-0.1-0.4-0.2-0.9-0.2-1.3
	c0-0.4-0.1-0.6-0.4-0.5c-0.3,0-0.8,0.4-1-0.4c0-0.1-0.1-0.1-0.2-0.1c-0.2-0.1-0.4-0.2-0.6-0.3c-0.4-0.2,0-0.5,0-0.7
	c0-0.2-0.1-0.4-0.1-0.5c-0.3-0.1-0.7-0.2-1-0.2c-0.8,0.2-1.6,0.4-2.5,0.7c-0.2,0.1-0.4,0.2-0.5,0.4c-0.2,0.6-0.6,0.9-0.9,1.3
	c-0.4,0.6-0.9,1.1-1.6,0.9c-0.3-0.1-0.6,0.2-0.6,0.7c-3.7,0-7.3,0-11,0c0-16.5,0-33,0-49.4c0.2,0,0.3-0.3,0.5,0
	c0.1,0.1,0.4,0,0.5-0.1c0.3-0.5,0.6-0.7,1-0.8c0.5-0.2,0.9-0.5,1.1-1.2c0.1-0.5,0.3-1,0.5-1.5c0.2-0.5,0.7-0.9,0.9-0.7
	c0.2,0.1,0.4,0.2,0.5,0.3c0.2,0.1,0.3,0.3,0.5,0.4c0,0.1,0,0.1,0,0.2c-0.4,0.2-0.7,0.4-1.2,0.7c0.3,0.3,0.6,0.5,0.8,0.7
	c0.1,0.1,0.2,0.4,0.3,0.6c-0.1,0.1-0.2,0.2-0.4,0.2c-0.5,0-1-0.1-1.5-0.1c-0.2,0-0.4,0.1-0.6,0.2c-0.3,0.2-0.3,0.7-0.2,1.1
	c0.2,0.4,0.4,0.1,0.5-0.1c0.2-0.2,0.9,0,1.1,0.2c-0.1,0.2-0.2,0.4-0.1,0.6c0.1,0.4,0.7,0.8,1,0.6c0.4-0.3,0.7-0.5,1-0.9
	c0.5-0.7,1.2-0.9,1.8-1c0.4-0.1,0.9,0,1.4,0.1c0.1,0,0.4,0.2,0.4,0.3c0,0.2,0,0.5-0.1,0.7c-0.2,0.3-0.4,0.5-0.6,0.8
	c-0.1,0.2-0.1,0.5-0.2,0.7c-0.1,0.2-0.1,0.4-0.2,0.4c-0.4,0.2-0.8,0.3-1.2,0.4c-0.2,0.1-0.4,0.1-0.6,0.2c-0.5,0.4-1,0.8-1.6,0.8
	c-0.2,0-0.4,0.2-0.5,0.4c-0.2,0.5-0.5,0.6-0.9,0.5c-0.2-0.1-0.4-0.2-0.6-0.4c-0.2,0.1-0.5,0.4-0.6,0.3c-0.6-0.2-1,0.1-1.5,0.6
	c-0.5,0.6-0.5,0.6,0,1c0,0,0.1,0,0.1,0c0.3-0.4,0.7-0.4,1.1-0.1c0.2,0.1,0.4,0.1,0.6,0.1c0.3,0,0.6,0,0.8,0.2
	c0.4,0.2,0.5,0.7,0.4,1.3c-0.1,0.6,0.1,0.8,0.5,0.5c0.3-0.2,0.4-0.1,0.4,0.4c0,0.4,0.1,0.7,0.2,1.1c0,0.1,0.2,0.2,0.3,0.3
	c0.2,0,0.4,0,0.6,0c0.1,0,0.2-0.1,0.3-0.2c0,0,0-0.2-0.1-0.3c0-0.1-0.1-0.2-0.1-0.3c0.5-0.3,1-0.6,1.5-0.9c0,0.1,0,0.2,0,0.2
	c-0.2,0.4-0.1,0.6,0.2,0.6c0.3,0,0.5,0.1,0.9,0.2c-0.2,0.3-0.3,0.5-0.4,0.7c-0.1,0.2-0.3,0.3-0.3,0.5c0,0.3,0.2,0.4,0.4,0.4
	c0.6-0.2,1.2-0.1,1.8-0.4c0.9-0.4,1.9-0.6,2.8-0.9c0.3-0.1,0.7-0.3,0.8-0.5c0.1-0.2,0.2-0.4,0.4-0.5c0.2-0.1,0.4-0.3,0.5-0.5
	c0.2-0.4,0.4-0.9,0.5-1.3c-0.1-0.2-0.2-0.5-0.3-0.9c-0.2,0.2-0.4,0.3-0.5,0.5c-0.2,0.3-0.4,0.3-0.7,0.1c-0.5-0.5-1.2-0.2-1.6,0.5
	c0,0.1-0.1,0.2-0.2,0.2c-0.4,0.4-0.8,0.3-1.2-0.2c-0.2,0-0.4,0-0.5-0.1c-0.2-0.2-0.3-0.4-0.3-0.7c-0.1-0.3-0.3-0.8,0-1
	c0.4-0.3,0.8-0.4,1.2-0.5c0.2-0.1,0.4,0,0.5-0.4c0-0.1,0.2-0.1,0.3-0.1c0,0,0.1,0.1,0.1,0.2c0,0.1-0.1,0.2-0.1,0.3
	c-0.1,0.1-0.1,0.1-0.2,0.2c0.2,0.2,1.1-0.1,1.2-0.4c0.1-0.6,0.4-1,0.9-1.1c0.1,0,0.2-0.2,0.3-0.4c-0.1-0.1-0.1-0.2-0.2-0.3
	c-0.4-0.2-0.9-0.3-1.3-0.4c0.4-0.3,0.8-0.6,1.2-1c0.4-0.4,0.8-0.8,1.2-1.2c0.2-0.2,0.5-0.2,0.7-0.3c0.1-0.1,0.3-0.1,0.3-0.2
	c0.3-0.3,0.7-0.6,1.1-0.5c0.1,0,0.1-0.1,0.2-0.2c-0.2-0.2-0.5-0.3-0.6-0.5c-0.1-0.1-0.2-0.4-0.2-0.5c0.1-0.3,0.2-0.7,0.3-1
	c0-0.1,0.1-0.1,0.1-0.2c0.3-0.3,0.5-0.5,0.8-0.8c0.2-0.2,0.4-0.3,0.6-0.4c0.1,0,0.3,0.2,0.3,0.3c0,0.2,0,0.5,0.2,0.5
	c0.2,0,0.3-0.2,0.4-0.3c0.1-0.1,0.3-0.2,0.4-0.3c0.1-0.1,0.2-0.1,0.3-0.2c0.4-0.4,0.8-0.4,1.2,0.1c0.3,0.3,0.5,0.3,0.6-0.2
	c0.1-0.2,0.1-0.4,0.3-0.5c0.4-0.3,0.8-0.5,1.2-0.7c0.5-0.2,0.7,0,0.7,0.7c0,0.2,0,0.4,0.1,0.5c0.2,0.3,0.3,0.6,0.5,0.8
	c0.2,0.1,0.6,0.1,0.8-0.3c-0.3-0.3-0.4-0.6-0.2-1c0.2-0.4,0.4-0.4,0.6-0.1c0.2,0.3,0.4,0.5,0.6,0.9c0.2,0.4,0.4,0.2,0.6,0.1
	c0.1-0.1,0.3-0.3,0.3-0.5c0-0.8,0.2-1,0.8-0.9c0.2,0.1,0.3,0,0.4-0.3c0-0.2,0.2-0.4,0.3-0.6c0.1-0.1,0.1-0.2,0.2-0.3
	c0.2-0.7,0.4-0.9,1.1-0.7c-0.1,0.1-0.2,0.2-0.3,0.3c0.1,0.1,0.2,0.2,0.3,0.3c0.1-0.2,0.2-0.4,0.4-0.5c0.6-0.2,1.1-0.9,1.8-0.8
	c0.3,0,0.6,0,0.9-0.1c0.2-0.1,0.3,0.1,0.3,0.4c0,0.8,0.3,1.5,0.6,2.2c0.2,0.4,0.1,1-0.2,1.2c-0.5,0.4-1,0.6-1.5-0.1
	c-0.1-0.1-0.3,0-0.4-0.1c0.1,0.1,0.2,0.3,0.3,0.4c0.3,0.5,0.7,1,1,1.5c0.1,0.1,0,0.2,0.1,0.4c0,0.7,0,0.7,0.6,0.5c0.1,0,0.1,0,0.2,0
	c0.7,0.1,1-0.7,1.6-1c0.3-0.1,0.5-0.5,0.9-0.8c0.1,1.4,0.1,2.7,0.5,3.8c-0.4,0.2-0.5,0.8-0.2,1.3c0.4,0.7,0.7,1.5,0.3,2.4
	c0,0.1,0.1,0.4,0.2,0.5C-12.2,55-12,55.4-12,56c0,0.4,0.3,0.8,0.5,1.2c0.1,0.2,0.3,0.4,0.4,0.5c-0.1,0.1-0.1,0.2-0.2,0.2
	c-0.4,0.2-0.7,0.6-0.6,1.1c0.1,0.7,0.6,1,1.1,0.9c0.2-0.1,0.4,0.1,0.6,0.1c0.1,0,0.3,0.1,0.4,0.1c0.2,0.1,0.4,0.1,0.6,0.3
	c0.4,0.4,0.7,0.4,0.8-0.3c0-0.1,0.2-0.3,0.3-0.3c0.4,0,0.6-0.3,0.9-0.5c0.3-0.3,0.6-0.8,1.1-0.6c0.1,0.1,0.3-0.1,0.5-0.2
	c0.3-0.1,0.6-0.2,0.9-0.3c0.4-0.1,0.9-0.3,1.4-0.4c0.5-0.1,0.9-0.4,1.4,0c0.2,0.1,0.3,0.3,0.1,0.6c-0.2,0.4-1.3,1-1.6,0.9
	c0,0-0.1-0.1-0.1-0.1c-0.3-0.3-0.6-0.4-0.8,0.1c-0.1,0.2-0.3,0.4-0.1,0.6c0.1,0.1,0.3,0,0.5-0.1c0.1,0,0.3-0.2,0.4-0.2
	c0,0,0,0.1,0.1,0.1c0,0.2-0.1,0.3-0.1,0.4c0.2,0.3,0.3,0.5,0.4,0.7c0.2,0.3,0.4,0.8,0.9,0.4c0.1-0.1,0.2,0,0.3,0
	c0.8-0.2,1.5,0.5,2.3,0.2c0.3-0.1,0.3,0.2,0.2,0.5c-0.2,0.4-0.2,0.7,0.2,0.9c0.1,0,0.1,0.2,0.1,0.3c0,0-0.1,0-0.1,0
	c-0.1,0.3-0.1,0.5-0.2,0.8c0,0.2-0.1,0.3-0.2,0.4C0.2,64.6,0,64.8-0.2,65c0.1,0.2,0.2,0.3,0.2,0.4c0.1,0.2,0.5,0.1,0.4,0.6
	c-0.1,0.3-0.1,0.6-0.3,0.9c-0.2,0.2-0.4,0.3-0.6,0.6c-0.1,0.2-0.3,0.4-0.3,0.6c0,0.1,0.2,0.3,0.3,0.5c0.1-0.2,0.2-0.3,0.3-0.5
	c0.1-0.1,0.2-0.3,0.3-0.3c0.1,0,0.2,0.2,0.2,0.3c0.2,0.7,0.5,0.9,1,0.7c0.2,0,0.3,0,0.5,0c0.3,0.1,0.5,0.1,0.7-0.2
	c0.1-0.1,0.4-0.1,0.6-0.1c0.1,0,0.2,0.1,0.5,0.2c-0.1-0.4-0.1-0.6-0.1-0.9C3.5,67.2,3.6,67,4,67c0.5,0,0.3,0.4,0.3,0.8
	c0.8-0.1,1.6-1,2.2,0.3c0.2-0.4,0.4-0.3,0.6-0.2c0.4,0.2,0.8,0.2,1.3,0.3c0.2,0,0.5,0.2,0.6,0.1c0.3-0.2,0.6-0.1,0.8,0.1
	c0.2,0.2,0.4,0.6,0.6,0.9c0,0-0.1,0.2-0.1,0.3c0,0.2-0.1,0.5-0.1,0.7c0,0.2,0.2,0.4,0.3,0.6c0.1,0.1,0.2,0.2,0.3,0.2
	c0.4-0.1,0.9-0.2,1.3-0.4c0.4-0.2,0.7-0.3,1.1-0.5c0.6-0.5,1.3,0,1.9,0.3c0.3,0.1,0.5,0.4,0.9,0.1c0.1-0.1,0.2-0.1,0.3,0
	c0.3,0.3,0.6,0,0.8-0.1c0.2-0.1,0.4-0.2,0.6-0.4c0.1-0.1,0.3-0.2,0.4-0.4c0.2-0.3,0.4-0.6,0.8-0.5c0.7,0.1,1.5-1.1,1.2-2.1
	c0.3,0,0.5,0.1,0.7,0.1c0.1,0,0.3,0.1,0.4,0c0.3-0.1,0.6-0.2,0.9-0.3c0.4-0.1,0.7-0.2,1.1-0.3c0.3,0,0.7,0,1,0
	c0.2,0,0.3,0.1,0.5,0.1c0.5,0,1-0.1,1.4-0.1c0.1,0,0.2,0.2,0.3,0.4c0.1,0.1,0.1,0.2,0.1,0.4c0.1-0.1,0.3-0.1,0.3-0.2
	c0.1-0.3,0.3-0.4,0.6-0.3c0.5,0.2,0.8,0,0.9-0.7c0.1-0.6,0.4-0.7,0.7-0.8c0.4-0.1,1-0.1,1.3-0.5c0.4-0.4,0.8-0.5,1.2-0.7
	c0.6-0.4,1.4-0.1,1.9,0.5c0.1,0.1,0.2,0.2,0.4,0.2c0.3,0.1,0.6,0.1,0.9,0.2c0.4,0.2,0.7,0.5,1.1,0.6c0.4,0.1,0.4,0.3,0.4,0.7
	c0,0.6,0.4,1.3,0.8,1.3c0.6,0,0.9,0.6,1.1,1.3c0,0.1,0.1,0.3,0.2,0.4c0.5,0.2,1,0.3,1.4,0.4c0.4,0,0.7,0.2,1,0.7
	c0.2,0.6,0.7,0.6,1.1,0.6c0,0,0.2-0.3,0.1-0.4c0-0.2-0.2-0.4-0.2-0.5c0,0,0-0.1,0.1-0.1c0.2,0.1,0.4,0.1,0.6,0.2
	c0.5,0.2,0.7-0.2,0.6-0.7c0-0.2,0-0.4,0.1-0.6c0.2-0.3,0.4-0.4,0.7-0.3c0.2,0.1,0.5,0,0.8-0.2c0.1,0,0-0.4,0-0.6
	c0-0.1,0.2-0.4,0.2-0.3c0.2,0,0.4,0.2,0.6,0.3c0.1,0.1,0.2,0.3,0.3,0.3c0.5-0.2,0.6,0.4,1,0.6c-0.2,0.1-0.4,0.2-0.4,0.3
	c-0.1,0.5-0.6,0.8-0.3,1.5c0.2,0.4,0.2,1,0.3,1.4c0.1,0.4,0.4,0.4,0.5,0c0.2-0.5,0.5-0.6,0.9-0.3c0.1,0.1,0.3,0.1,0.5,0.1
	c0.4,0,0.9-0.1,1.2,0.1c0.3,0.2,0.5,0.3,0.7,0.1c0,9.3,0,18.7,0,28 M-8.1,100c0-0.3,0-0.6-0.1-0.9c0-0.3,0.1-0.4,0.3-0.3
	c0.4,0.1,0.9-0.2,1.3,0.3c0,0,0.1,0,0.1,0c0.2-0.6,0.6-0.5,0.9-0.3c0,0,0.1,0,0.1,0 M-0.9,71.6c-0.2-0.7-0.3-0.8-0.8-0.7
	C-2,71-2.3,71.3-2.6,71.3 M-5.5,73.9c-0.1,0-0.3,0-0.4,0.1c-0.4,0.5-0.9,0.4-1.4,0.6c-0.1,0-0.3-0.1-0.4-0.2
	c0.3-0.6,0.6-1.1,0.9-1.5c0,0,0.1-0.1,0.1-0.1c0.6,0,0.8-0.6,1-1.1c-0.4-0.4-0.7-0.7-1-1c0.1-0.2,0.3-0.4,0.4-0.7
	c-0.2-0.1-0.3-0.1-0.4-0.2c0.2-0.6,0.2-0.7-0.3-0.8c-0.3-0.1-0.6-0.1-0.8-0.4c-0.6-0.7-1-0.8-1.7-0.3c-0.1,0.1-0.2,0.1-0.3,0.1
	c-0.5,0.1-0.6,0.3-0.5,0.9c0,0.2,0,0.5-0.1,0.6c-0.2,0.3-0.2,0.4,0,0.7c0.3,0.3,0.3,0.8,0,1c-0.1,0.1-0.3,0.2-0.4,0.3
	c-0.2,0.2-0.4,0.4-0.7,0.5c-0.5,0.2-1,0.3-1.5,0.4c-0.2,0-0.4,0.1-0.5,0c-0.5-0.3-0.9-0.6-1.4,0.1c-0.3-0.6-0.6-0.8-1.2-0.6
	c-0.7,0.3-1.4,0.4-2.1,0.3c-0.1,0-0.1,0-0.2,0c-0.1,0-0.2,0.1-0.2,0.2c0,0.1,0.1,0.3,0.1,0.4c0.3,0.1,0.6,0.1,0.9,0.2
	c0.1,0,0.3,0.1,0.3,0.1c0,0.2,0,0.3-0.1,0.5c-0.1,0.3-0.2,0.6-0.4,0.9c-0.2,0.1-0.4,0.2-0.7,0.3c0.2,0.3,0.3,0.5,0.4,0.6
	c-0.1,0.2-0.2,0.4-0.2,0.6c0.1,0.6-0.2,0.7-0.5,0.9c-0.1,0.1-0.3,0.1-0.4,0.1c-0.4,0.3-1.2-0.2-1.1,1.1c0,0,0,0.1-0.1,0.1
	c-0.4,0.3-0.8,0.8-1.3,0.9c-0.4,0.1-0.6,0.4-0.7,0.9c0,0.1-0.3,0.3-0.3,0.2c-0.5-0.6-0.6,0.1-0.9,0.4c-0.2,0.3-0.1,0.8,0.2,0.9
	c0.4,0.1,0.9,0.4,1.3-0.2c0-0.1,0.2-0.1,0.2,0c0.4,0.3,0.7,0,1.1-0.1c0.3-0.2,0.6-0.4,0.9-0.5c0.3-0.1,0.6,0.1,0.9,0.2
	c0.1,0,0,0.4,0,0.6c-0.1,0-0.1,0.1-0.1,0.1c-0.5-0.1-0.8,0.5-1.2,0.6c-0.2,0.1-0.3,0.3-0.5,0.6c-0.1,0.1-0.1,0.3,0,0.4
	c0.2,0.5,0.8,0.7,1.2,0.4c0.1-0.1,0.3-0.1,0.4-0.1c0.4,0.1,0.8-0.1,1.1-0.5c0.3-0.5,0.6-0.2,0.9-0.2c-0.1,0.4-0.2,0.8-0.1,0.9
	c0.3,0.4,0.3,0.8,0.2,1.3c0.1,0.1,0.1,0.1,0.2,0.1c0.1,0.2,0.3,0.4,0.3,0.6c0,0.4-0.3,0.1-0.4,0.2c-0.2,0.1-0.4,0.2-0.5,0.4
	c-0.1,0.5-0.3,0.7-0.6,0.6c-0.2,0-0.4,0-0.5,0.1c-0.5,0.1-0.9,0.2-1.2-0.6c-0.1-0.4-0.3-0.8-0.5-1.2c-0.3,0.6-0.6,0.1-1,0.2
	c-0.4,0.1-0.7-0.1-0.9-0.5c-0.2-0.4-0.7-0.5-0.7-1.2c0-0.3-0.2-0.1-0.3,0.1c-0.3,0.5-0.6,1.1-1.1,1.2c-0.4,0-0.6,0.2-0.7,0.7
	c-0.1,0.3-0.8,0.5-1,0.4c-0.1-0.1-0.1-0.2-0.1-0.3c0.2-0.5-0.1-0.8-0.3-0.9c-0.4-0.2-0.8-0.4-1.2-0.6c0,0-0.1,0-0.1,0
	c-0.4,0.1-0.7,0.1-1.1,0.3c-0.3,0.1-0.5,0.3-0.8,0.6c-0.1,0.1-0.1,0.3-0.1,0.4c0.1,0,0.2,0,0.3,0.1c0.3,0.1,0.7,0.2,1,0.3
	c-0.1,0.3-0.2,0.5-0.2,0.6c0.1,0.2,0.3,0.4,0.4,0.6c0,0.2,0,0.4-0.1,0.6c-0.4,0.9-0.9,1.7-1.5,2.3c-0.4,0.4-0.7,0.9-0.8,1.7
	c0.2,0,0.3-0.1,0.4,0c0.8,0.2,1.6,0.1,2.3-0.2c0.4-0.2,0.8-0.6,1.2-0.9c0.3-0.2,0.5-0.3,0.9-0.2c0.3,0.1,0.6-0.1,0.7,0.5
	c0,0.1,0.1,0.1,0.2,0.1c0.5-0.4,0.8,0.4,1.3,0.5c0.1,0,0.2,0.3,0.1,0.4c-0.3,0.5-0.6,0.9-0.9,1.3c0,0.1-0.2,0-0.3,0
	c0.1-0.2,0.2-0.3,0.3-0.5c-0.2-0.5-0.4-0.5-0.9-0.3c-0.2,0.1-0.5,0.1-0.6-0.1c-0.4-0.5-0.8-0.7-1.3-0.4c-0.5,0.3-0.9,0.6-1.3,0.9
	c-0.1,0.1-0.2,0.3-0.3,0.5c0.3,0.1,0.6,0.2,0.8,0.4c0.2,0.2,0.4,0.5,0.4,0.8c0,0.6-0.8,1-1.2,0.7c-0.1-0.1-0.2,0-0.3,0
	c-0.1,0-0.3,0.2-0.4,0.2c-0.4,0-0.4,0.4-0.4,0.7c0,0.1,0.3,0.2,0.5,0.2c0.1,0.1,0.3,0.1,0.4,0.2c0.1,0.7,0.6,0.6,0.8,0.5
	c0.4-0.3,0.7,0.1,1,0.1c-0.1,0.1-0.1,0.2-0.1,0.2c-0.1,0.2-0.2,0.5-0.1,0.7c0.1,0.2,0.3,0.3,0.5,0.3c0.3,0,0.6-0.1,0.9,0
	c0.3,0,0.6,0.2,0.9,0.3c0.1,0,0.2,0.1,0.3,0.1c0.3,0.1,0.6,0.1,0.8,0.2c0.8,0.4,1.3,0,1.2-1.2c0-0.2,0-0.5,0.1-0.8
	c0.2-0.4,0-0.6-0.1-0.9c-0.2-0.4-0.3-0.8-0.5-1.2c0.2,0,0.3,0,0.4,0c0.5,0.1,1,0.1,1.5,0.2c0.4,0,0.5-0.3,0.6-0.7
	c0-0.3,0.1-0.6,0.1-0.9c0.1-0.4,0.5-0.6,0.8-0.4c0.2,0.1,0.3,0.2,0.5,0.4c0.3,0.2,0.4,0.6,0.4,1.1c0,0.4,0.1,0.7,0.1,1.2
	c0.1-0.2,0.2-0.2,0.2-0.3c0.2-0.4,0.4-0.7,0.8-0.7c0.2,0,0.7,0,0.8-0.6c0-0.2,0.2-0.5,0.2-0.5c0.2,0.1,0.4,0.2,0.5,0.4
	c0.1,0.1,0.1,0.3,0.1,0.5c-0.3,0.2-0.6,0.3-0.7,0.9c0.3-0.1,0.4-0.1,0.6-0.2c0.3-0.1,0.5-0.3,0.7-0.5c0.2-0.1,0.4-0.7,0.2-0.9
	c-0.2-0.4-0.1-0.5,0.2-0.6c0.2-0.1,0.4-0.1,0.6-0.2c0,0.2,0,0.4-0.1,0.6c-0.1,0.4-0.3,0.8-0.3,1.2c0,0.2,0,0.5,0.1,0.7
	c0.3,0.6,1.1,0.6,1.6,0.3c0.3-0.3,0.7-0.4,1.1-0.6c0,0,0.1,0.1,0.1,0.1c-0.1,0.4-0.2,0.7-0.3,1.1c-0.1,0.2-0.1,0.5-0.1,0.6
	c0.2,0.2,0.4,0.5,0.7,0.5c0.6,0,1.1-1.2,0.9-2c-0.1-0.4-0.2-0.8,0.2-1.1c0.1-0.1,0.1-0.3,0.1-0.5c0-0.5,0.1-0.8,0.5-0.8
	c0.7,0,1.5-0.2,2.2-0.4c0.5-0.2,1-0.2,1.3,0.7c0.1,0.3,0.4,0.6,0.7,0.3c0.1-0.1,0.4-0.1,0.5,0c0.2,0.2,0.5,0.4,0.6,0.7 M-41.4,81.1
	c0,0,0.1,0.1,0.1,0.1c0.6,0,1.1,0.3,1.6,0.4c0.5,0.1,1-0.1,1.4-0.2c0.2-0.1,0.5-0.3,0.7-0.3c0.6,0,1.2,0,1.7,0c0.1,0,0.3-0.1,0.4,0
	c0.4,0.3,0.6,0.1,0.9-0.3c0.2-0.3,0.6-0.4,0.7-0.1c0.6,0.9,1.4,0.6,2.1,0.6c0.3,0,0.6,0.1,1,0.1c0.1,0,0.3,0,0.4-0.1
	c0.3-0.3,1.1-0.5,1.4-0.3c0.4,0.4,1.2,0.4,1.6,0c0.2-0.2,0.2-0.5,0.2-0.8c0-0.1-0.3-0.2-0.4-0.3c-0.1-0.1-0.2-0.1-0.3-0.2
	c-0.2-0.5-0.5-0.3-0.7,0c-0.3,0.3-0.6,0.4-0.8,0c-0.3-0.5-0.6-0.5-1-0.4c-0.3,0.1-0.7,0.2-0.9-0.1c-0.3-0.4-0.9-0.2-0.9-1
	c0,0,0,0,0,0c-0.4,0-0.5-0.4-0.7-0.7c-0.1-0.1-0.2-0.1-0.3-0.1c-0.3,0-0.7,0.1-1.1,0.2c-0.3-0.5-0.4-0.5-1-0.2
	c-0.4,0.2-0.8,0.2-1.2,0.3c0,0,0,0.1-0.1,0.1c-0.3,0.4-0.6,0.7-1,0.6c-0.1,0-0.4,0-0.5,0.2c-0.5,0.8-1.4,0.4-2,1
	c-0.1,0-0.2-0.1-0.3-0.1c-0.2-0.1-0.5-0.2-0.6,0.2c-0.1,0.3-0.1,0.7-0.2,1C-41.2,80.8-41.3,80.9-41.4,81.1z M-29.6,56.5
	c-0.4,0.8-0.4,0.8-0.9,0.2c-0.2-0.2-1.3,0-1.4,0.3c0,0.1,0,0.3,0,0.4c0.1,0.3,0.2,0.6,0.2,0.9c0,0.6,0.3,0.8,0.6,0.9
	c0.2,0.1,0.5,0,0.7-0.1c0.3-0.4,0.5-0.4,0.8,0.2c0.1,0.1,0.2,0.3,0.3,0.3c0.8-0.2,1.6-0.2,2.1-1.4c-0.6,0.4-1.2,0.8-1.9,0.7
	c0.2-0.5,0.4-1,0.6-1.6c-0.2-0.1-0.4-0.1-0.6-0.2c0.3-0.3,0.6-0.5,1-0.1c0.1,0.1,0.2,0,0.3,0c0.1-0.2,0.2-0.5,0.3-0.7
	c0,0-0.2-0.2-0.3-0.2c-0.4-0.1-0.7-0.4-1.1,0.1c0,0-0.1,0-0.2,0c0.1-0.1,0.1-0.2,0.2-0.4c0-0.2,0.1-0.5,0.1-0.6
	c-0.2-0.1-0.4-0.3-0.6-0.2c-0.2,0-0.4,0.3-0.5,0.5c-0.1,0.2-0.2,0.5-0.2,0.7C-29.9,56.2-29.8,56.3-29.6,56.5z M-33.8,61.9
	c0,0.1,0,0.2,0.1,0.3c0.2,0,0.5,0,0.7,0c0.2,0,0.5,0,0.7-0.1c0.5,0,0.9,0,1.4,0c0.1,0,0.2-0.1,0.3-0.2c0.5-0.4,1-0.7,1.5-1.1
	c0.1-0.1,0.2-0.3,0.2-0.4c0-0.5-0.3-0.5-0.6-0.4c-1,0.1-2,0.6-3,1.1C-33,61.3-33.4,61.7-33.8,61.9z M-49.1,62.3c0,0.1,0,0.1,0.1,0.2
	c0.7-0.1,1.4-0.2,2.1-0.3c0.4-0.1,0.9-0.2,1.3-0.3c0.3-0.1,0.7-0.2,1-0.3c0.1,0,0.2-0.3,0.1-0.4c0-0.1-0.2-0.2-0.3-0.2
	c-0.5,0-0.9,0.1-1.4,0.1c-0.4,0-0.9-0.1-1.2,0.4c-0.1,0.1-0.1,0.2-0.2,0.2c-0.4,0.1-0.8,0.2-1.1,0.4C-48.9,62-49,62.2-49.1,62.3z
	 M-28.6,54.1c0.1,0.5,0.4,0.6,0.6,0.5c0.6-0.2,1.2,0.1,1.7-0.6c-0.3-0.6-0.6-0.8-0.9-0.6C-27.7,53.5-28.1,53.8-28.6,54.1z
	 M-32.1,86.6c0.4-0.1,0.8-0.1,1.2-0.3c0.3-0.2,0.6-0.6,0.9-1c-0.6,0-1,0-1.4,0C-31.9,85.4-32.2,86-32.1,86.6z M-3.2,67
	c0-0.1-0.1-0.4-0.1-0.5c-0.3-0.1-0.5-0.1-0.6-0.3c-0.3-0.5-0.6-0.1-0.9-0.1c-0.1,0-0.3,0.4-0.4,0.8c0.3,0,0.4,0,0.6,0
	c0.1,0,0.3,0,0.3,0c0.2,0.4,0.4,0.1,0.6,0.1C-3.6,67.1-3.4,67-3.2,67z M-15.3,57.9c0,0,0.1,0.1,0.1,0.1c-0.1,0.2-0.2,0.5-0.3,0.7
	c-0.3,0.2-0.5,0.6-0.4,1c0.3-0.1,0.5-0.2,0.8-0.3c0.1,0,0.2-0.1,0.2-0.2c0.1-0.4,0.2-0.8,0.2-1.2C-15,57.9-15.1,57.9-15.3,57.9z
	 M-24.8,53.5c0.1,0,0.1,0,0.2,0c0.1-0.3,0.2-0.5,0.3-0.8c0.2-0.5,0.1-0.7-0.3-0.8c-0.2,0.3-0.4,0.5-0.4,0.8
	C-25.1,52.8-24.9,53.2-24.8,53.5z M-41.9,67.4c-0.2-0.3-1.5-0.3-1.6-0.1c-0.1,0.1-0.1,0.2-0.2,0.4c0,0.1,0.1,0.2,0.2,0.2
	C-43,67.6-42.4,67.5-41.9,67.4z M-27,57.7c0,0.1,0,0.2,0,0.3c0.2,0,0.4,0,0.5,0c0,0,0-0.3,0.1-0.4C-26.6,57.6-26.8,57.7-27,57.7z
	 M-43.4,61.9c0-0.1,0-0.2,0-0.3c-0.2-0.3-0.4,0.1-0.6,0.2c0,0.1,0,0.1,0,0.2C-43.8,61.9-43.6,61.9-43.4,61.9z"/>
<path class="st2" d="M50.1,72c-0.3,0.2-0.5,0.1-0.7-0.1c-0.3-0.2-0.8-0.1-1.2-0.1c-0.2,0-0.4,0-0.5-0.1c-0.4-0.3-0.6-0.2-0.9,0.3
	c-0.2,0.4-0.4,0.4-0.5,0c-0.2-0.5-0.1-1-0.3-1.4c-0.3-0.7,0.2-1,0.3-1.5c0-0.1,0.2-0.2,0.4-0.3c-0.4-0.2-0.5-0.8-1-0.6
	c-0.1,0-0.2-0.2-0.3-0.3c-0.2-0.1-0.4-0.2-0.6-0.3c-0.1,0-0.2,0.2-0.2,0.3c0,0.2,0,0.6,0,0.6c-0.2,0.1-0.5,0.2-0.8,0.2
	c-0.3-0.1-0.6,0-0.7,0.3c-0.1,0.2-0.1,0.4-0.1,0.6c0.1,0.6-0.2,0.9-0.6,0.7c-0.2-0.1-0.4-0.1-0.6-0.2c0,0,0,0.1-0.1,0.1
	c0.1,0.2,0.2,0.3,0.2,0.5c0,0.1-0.1,0.4-0.1,0.4c-0.4-0.1-0.8-0.1-1.1-0.6c-0.2-0.5-0.5-0.7-1-0.7c-0.5,0-1-0.2-1.4-0.4
	c-0.1,0-0.2-0.2-0.2-0.4c-0.2-0.7-0.5-1.2-1.1-1.3c-0.4,0-0.8-0.7-0.8-1.3c0-0.4-0.1-0.6-0.4-0.7c-0.4-0.1-0.7-0.4-1.1-0.6
	c-0.3-0.1-0.6-0.1-0.9-0.2c-0.1,0-0.3-0.1-0.4-0.2c-0.5-0.6-1.3-0.9-1.9-0.5c-0.4,0.3-0.8,0.3-1.2,0.7c-0.3,0.3-0.8,0.3-1.3,0.5
	c-0.3,0.1-0.6,0.2-0.7,0.8c-0.1,0.7-0.4,0.9-0.9,0.7c-0.3-0.1-0.4,0-0.6,0.3c-0.1,0.1-0.2,0.1-0.3,0.2c0-0.1,0-0.3-0.1-0.4
	c-0.1-0.1-0.2-0.4-0.3-0.4c-0.5,0-1,0.1-1.4,0.1c-0.2,0-0.3-0.1-0.5-0.1c-0.3,0-0.7,0-1,0c-0.4,0.1-0.7,0.2-1.1,0.3
	c-0.3,0.1-0.6,0.2-0.9,0.3c-0.1,0-0.3,0-0.4,0c-0.2,0-0.4-0.1-0.7-0.1c0.3,1-0.5,2.2-1.2,2.1c-0.4-0.1-0.6,0.1-0.8,0.5
	c-0.1,0.2-0.3,0.3-0.4,0.4c-0.2,0.1-0.4,0.3-0.6,0.4c-0.3,0.1-0.5,0.4-0.8,0.1c-0.1-0.1-0.2-0.1-0.3,0c-0.3,0.3-0.6,0-0.9-0.1
	c-0.6-0.3-1.3-0.8-1.9-0.3c-0.4,0.3-0.7,0.4-1.1,0.5c-0.4,0.2-0.9,0.3-1.3,0.4c-0.1,0-0.2-0.1-0.3-0.2c-0.1-0.2-0.3-0.4-0.3-0.6
	c0-0.2,0-0.5,0.1-0.7c0-0.1,0.2-0.3,0.1-0.3c-0.2-0.3-0.3-0.7-0.6-0.9c-0.2-0.1-0.5-0.3-0.8-0.1c-0.2,0.1-0.4,0-0.6-0.1
	C8,68.1,7.5,68.1,7.1,68c-0.3-0.1-0.5-0.2-0.6,0.2c-0.6-1.3-1.4-0.4-2.2-0.3c0-0.4,0.2-0.9-0.3-0.8c-0.4,0-0.5,0.2-0.4,0.7
	c0.1,0.2,0.1,0.5,0.1,0.9c-0.2-0.1-0.4-0.2-0.5-0.2c-0.2,0-0.5,0-0.6,0.1c-0.2,0.4-0.4,0.3-0.7,0.2c-0.2,0-0.3-0.1-0.5,0
	c-0.5,0.1-0.8-0.1-1-0.7c0-0.1-0.2-0.3-0.2-0.3c-0.1,0-0.2,0.2-0.3,0.3c-0.1,0.1-0.2,0.3-0.3,0.5c-0.1-0.2-0.3-0.3-0.3-0.5
	c0-0.2,0.2-0.4,0.3-0.6c0.2-0.2,0.5-0.3,0.6-0.6c0.1-0.2,0.2-0.6,0.3-0.9c0.1-0.5-0.3-0.4-0.4-0.6C0,65.2-0.1,65.1-0.2,65
	c0.2-0.2,0.4-0.3,0.5-0.5c0.1-0.1,0.2-0.3,0.2-0.4c0.1-0.2,0.1-0.5,0.2-0.8c0,0,0.1,0,0.1,0c0-0.1-0.1-0.2-0.1-0.3
	c-0.3-0.2-0.3-0.5-0.2-0.9c0.1-0.3,0-0.6-0.2-0.5c-0.8,0.2-1.5-0.5-2.3-0.2c-0.1,0-0.2,0-0.3,0c-0.5,0.4-0.6-0.1-0.9-0.4
	c-0.1-0.2-0.3-0.4-0.4-0.7c0-0.1,0.1-0.2,0.1-0.4c0,0,0-0.1-0.1-0.1c-0.1,0.1-0.3,0.2-0.4,0.2C-4.1,60-4.3,60.1-4.4,60
	c-0.2-0.2-0.1-0.4,0.1-0.6c0.3-0.5,0.5-0.5,0.8-0.1c0,0,0.1,0.1,0.1,0.1c0.3,0.1,1.4-0.5,1.6-0.9c0.1-0.3,0.1-0.4-0.1-0.6
	c-0.5-0.4-0.9-0.1-1.4,0c-0.5,0.1-0.9,0.2-1.4,0.4c-0.3,0.1-0.6,0.2-0.9,0.3c-0.2,0.1-0.4,0.2-0.5,0.2c-0.5-0.2-0.7,0.3-1.1,0.6
	c-0.3,0.2-0.5,0.5-0.9,0.5c-0.1,0-0.3,0.2-0.3,0.3c-0.2,0.6-0.4,0.7-0.8,0.3c-0.2-0.2-0.4-0.2-0.6-0.3C-9.9,60.1-10,60-10.1,60
	c-0.2-0.1-0.4-0.2-0.6-0.1c-0.5,0.2-1-0.2-1.1-0.9c-0.1-0.5,0.2-0.9,0.6-1.1c0,0.1-0.1,0.3-0.1,0.4c0.5,0.3,1,0.2,1.4-0.3
	c0.2-0.3,0.6-0.4,0.9-0.5c0.2-0.1,0.5,0,0.8-0.1c0.2-0.1,0.3-0.3,0.5-0.5c-0.1-1,0.3-1.7,1-2.1c0.4-0.2,0.6-0.1,0.8,0.5
	c0.1,0.3,0.2,0.5,0.4,0.9c0.2-0.2,0.3-0.3,0.5-0.5c0.3-0.3,0.8-0.3,1,0c0,0.1,0.1,0.2,0.1,0.3c-0.1,0.4,0.1,0.5,0.3,0.5
	c0.4-0.2,0.8-0.5,1.2-0.7c0.1-0.1,0.3-0.3,0.2-0.4c-0.1-0.9,0.5-1.7,1.1-1.7c0.2,0,0.4-0.2,0.6-0.2c0.3,0.1,0.6,0.3,0.9,0.4
	c0.2,0.1,0.3,0.1,0.5,0.2c0,0,0-0.1,0-0.1C0.8,54.1,0.7,54,0.5,54c0-0.1,0-0.1,0-0.2c0.3,0,0.5-0.1,0.8,0c0.6,0.2,0.9,0.2,1.3-0.3
	c0.4,0.1,0.7,0.3,0.9,0.9c0,0.2,0.5,0.2,0.8,0.1c0.6-0.1,1.1-0.4,1.6-0.6c0,0,0.1-0.1,0.2-0.2c-0.3-0.1-0.5-0.3-0.7-0.4
	C6,53,6.6,52.8,7.1,53.1c0.2,0.1,0.3,0.4,0.3,0.7c0,0.1-0.2,0.2-0.3,0.4c-0.1,0.1-0.2,0.2-0.2,0.3c-0.1,0.6-0.5,0.6-0.8,0.6
	c-0.7,0-1.1,0.5-1.4,1.1c0,0.1,0,0.4,0.1,0.4c0.1,0.1,0.2,0,0.4,0c1-0.3,1.9-0.5,2.9-0.8c0.1,0,0.2,0,0.3,0c1,0,1.9-0.3,2.9-0.6
	c0.2-0.1,0.4-0.1,0.5,0c0.1,0.1,0.2,0.3,0.2,0.5c0.1,0.3,0.1,0.6,0.2,0.9c0.3,0.2,0.5,0,0.7-0.3c0.3-0.3,0.6-0.6,0.9-0.9
	c0.1-0.1,0.2,0,0.2,0c0,0.4,0,0.7,0,0.9c0,0.1-0.1,0.3-0.2,0.4c-0.1,0.2-0.2,0.3-0.2,0.4c0.1,0.1,0.1,0.1,0.1,0.1
	c0.9-0.6,1.8,0,2.6-0.1c0.2,0,0.3,0.1,0.5,0.1c0.3,0.1,0.5,0.2,0.6-0.3c0-0.2,0.3-0.3,0.5-0.4c0.3-0.2,0.7-0.4,1-0.5
	c0.2-0.1,0.5-0.1,0.7-0.1c0.2,0,0.4,0.1,0.5,0c0.4-0.3,0.9-0.7,1.3-1.1c0.1-0.2,0.2-0.5,0.2-0.8c-0.2-0.4-0.7,0.2-0.9-0.4
	c0.3-0.1,0.7-0.1,1.1-0.2c-0.2-0.1-0.4-0.2-0.6-0.4c0.3-0.2,0.5-0.3,0.7-0.4c0,0.1,0,0.1,0,0.2c0.2,0.1,0.5,0.3,0.7,0.4
	c0.1,0.1,0.3,0.2,0.3,0.3c0.1,1,0.8,1.2,1.2,1.9c0.2,0.3,0.6,0.2,0.9,0.3c0.1,0.1,0.4,0.1,0.4,0.2c0.1,0.3-0.1,0.4-0.3,0.5
	c0,0-0.1,0-0.1,0c-0.5,0.3-1,0.8-1.5,0.1c0,0-0.1,0-0.1,0c-0.4,0.5-0.8,0.2-1.2,0.2c-0.2,0-0.5,0-0.7,0.4c-0.1,0.2-0.3,0.2-0.5,0.3
	c0.5,1.3-0.5,0.5-0.8,1c0.5-0.1,0.7,0.3,0.8,0.9c0,0.1,0.2,0.2,0.3,0.3c0.4,0,0.7,0,1.2,0c0,0.3,0.4,0.7,0,1.1c0,0,0,0.3,0.1,0.3
	c0.3,0.1,0.3,0.3,0.3,0.6c0,0.4,0.3,0.4,0.4,0.3c0.6-0.3,1.1-0.6,1.6-1c0.5-0.4,0.9-0.9,1.4-1.4c0,0,0.1,0,0.1,0
	c0.1,0.3,0.2,0.5,0.3,0.8c0,0,0.1,0,0.1,0c0.1-0.5,0.4-1,0-1.7c0.5-0.1,0.9-0.2,1.3-0.2c0.4,0,0.6-0.3,0.6-0.7
	c0.1-0.6-0.1-1-0.5-1.2c-0.5-0.2-0.8-0.8-0.6-1.4c0-0.1,0.1-0.3,0.2-0.3c0.4-0.2,0.6-0.5,0.7-1c0.1-0.4,0.3-0.5,0.5-0.4
	c0.3,0.1,0.5,0.1,0.7-0.2c0.2-0.3,0.4-0.1,0.6,0.2c0.2,0.2,0.5,0.4,0.7,0.5c0.4,0.1,0.8,0.2,1.1,0.2c0.1,0,0.3-0.2,0.4-0.3
	c0.2-0.2,0.3-0.7,0.6-0.1c0,0,0.1,0,0.1,0c0.4,0,0.6,0.4,0.5,0.9c0,0.2-0.1,0.4-0.2,0.7c0,0.3,0,0.6-0.1,1.1c-0.3,0.4-0.2,1,0.4,1.3
	c0.1,0.1,0.3,0.2,0.4,0.4c0.1,0.1,0.2,0.3,0.3,0.3c0.2,0.1,0.4,0.1,0.5,0.2c0.1,0.3,0.2,0.7,0.2,1.1c0,0.2-0.2,0.4-0.3,0.6
	c-0.1,0.1-0.2,0.2-0.3,0.3c0.4,0.4,0.6,1,1.1,1.1c0.1,0,0.1,0.1,0.2,0.2c0.3,0.2,0.6,0.6,1,0.3c0.1-0.1,0.4,0.2,0.8,0.3
	c-0.2,0.2-0.3,0.4-0.4,0.4c-0.3,0.1-0.7,0.1-1,0.1c-0.2,0.1-0.4,0.2-0.5,0.4c-0.2,0.3,0,0.5,0.2,0.7c0.4,0.5,0.7,1.1,0.6,1.9
	c0,0,0,0.1,0,0.1c0.4,0.3,0.8,0.7,1.2,0.7c0.3,0,0.7-0.5,1-0.7c0.1-0.1,0.3-0.3,0.4-0.5c0.2-0.4,0.6-0.5,1-0.3
	c0.3,0.1,0.6-0.1,0.9-0.2c0.6-0.2,1.2-0.5,1.8-0.7c0.1,0,0.3,0.2,0.4,0.3c0.1,0.1,0.1,0.2,0.2,0.3c0.6,0.1,1.3,0.5,1.9,0.2
	c0.2-0.1,0.3-0.2,0.5-0.3c0.4,0.4,0.6,0.9,0.7,1.6c0,0.1,0.2,0.4,0.2,0.4c0.5,0,0.6,0.4,0.5,0.9c0,0,0,0.1,0,0.2c0.1,0,0.3,0,0.5,0
	c0,0.2-0.1,0.5-0.1,0.7c0,0.1,0.1,0.3,0.2,0.4c0.1-0.1,0.2-0.1,0.2-0.2c0.1-0.2,0.2-0.6,0.4-0.7c0.5-0.5,0.8-1.2,1.5-1.3
	C50.1,68.3,50.1,70.1,50.1,72z M3.9,65.6c0.4-0.2,0.7-0.3,1-0.4c0.2-0.1,0.6-0.1,0.6,0C5.7,65.8,6,66,6.4,65.8
	c0.1,0,0.2,0.1,0.3,0.1c0.1,0,0.3-0.1,0.4-0.1c0.2-0.1,0.4-0.2,0.5-0.2c0.7-0.1,1.3,0.3,2-0.1c0.2-0.2,0.4,0.1,0.5,0.4
	c0,0.2,0,0.3,0,0.5c0.1,0.3,0.2,0.6,0.5,0.4c0.4-0.3,0.7-0.7,1-1.1c-0.2-0.2-0.3-0.3-0.4-0.4c-0.1-0.1-0.2-0.3-0.3-0.4
	c-0.1-0.1-0.2-0.2-0.2-0.2c0-0.1,0.1-0.3,0.1-0.4c0.2-0.1,0.4-0.2,0.5-0.1c0.3,0.1,0.3-0.1,0.4-0.3c0.2-0.5,0.4-0.6,0.7-0.2
	c0.1-0.1,0.3-0.2,0.4-0.3c-0.2-0.3-0.5-0.5-0.5-0.7c0-0.3,0.3-0.5,0.4-0.8c-0.4-0.3-0.7-0.6-1.1-0.9c0.4-0.5,0.8-0.5,1.2-0.2
	c0.3,0.2,0.6,0.4,1,0.6c0.4,0.2,0.7,0.5,1.1,0.7c-0.1,0.1-0.2,0.2-0.4,0.4c0.2,0.1,0.4,0.2,0.6,0.2c0.1-0.2,0.2-0.3,0.2-0.4
	c0.2,0.1,0.5,0.2,0.7,0.3c0,0,0.1-0.1,0.1-0.1c-0.1-0.3-0.1-0.6-0.2-0.8c-0.2-0.3-0.5-0.5-0.8-0.7c-0.4,0.6-0.6-0.3-1-0.1
	c0-0.1,0-0.2,0-0.2c0.2-0.1,0.4-0.3,0.7-0.5c-0.2-0.1-0.3-0.2-0.4-0.3c-0.2-0.1-0.3-0.1-0.5-0.3c-0.2-0.2-0.4-0.5-0.6-0.8
	c0.1-0.1,0.3-0.2,0.5-0.4c-0.2-0.1-0.5-0.2-0.7-0.1c-0.4,0.1-0.7,0-0.8-0.5C12.3,57.1,12,57,11.7,57c-0.6,0-1.2-0.1-1.7-0.4
	c-0.2-0.1-0.4-0.3-0.6-0.4c0,0.1,0,0.1,0,0.2c-0.2,0.1-0.5,0.3-0.7,0.3c-0.3,0-0.7-0.2-0.9,0.3c0,0.1-0.2,0.1-0.2,0.1
	c-1.1-0.4-2.1,0.2-3.1,0.3c-0.6,0.1-1.1,0.2-1.7,0.1c-0.5-0.1-1,0-1.3,0.6c-0.1,0.2-0.1,0.4-0.1,0.6c0,0.2,0.2,0.3,0.4,0.4
	c0.1,0.1,0.3,0.1,0.4,0.2c-0.1,0.3,0.1,0.7-0.2,0.9c-0.1,0.1-0.1,0.3-0.2,0.4c0,0,0.1,0.1,0.1,0.1c0.3-0.1,0.5-0.3,0.8-0.4
	c0.2-0.1,0.3-0.2,0.2-0.5c0-0.2,0.1-0.5,0.1-0.8c0.4,0.6,0.4,0.6,0.8,0.2c0.2-0.3,0.4-0.3,0.6,0.1c0.2,0.4,0.5,0.4,0.8,0.2
	c0.2-0.2,0.5-0.3,0.8-0.4c-0.2,0.5-0.4,0.9-0.6,1.2c-0.2,0.4-0.4,0.8-0.7,1c-0.2,0.2-0.5,0.2-0.8-0.1c-0.2-0.3-0.7-0.5-1-0.5
	c-0.5,0.1-0.9,0.5-1.4,0.9c-0.1,0.1-0.2,0.2-0.3,0.3c0,0.1,0,0.1,0.1,0.2c0.2,0,0.4-0.1,0.6-0.1c0.1,0,0.3,0.1,0.4,0.2
	c0.1,0.3-0.3,0.9-0.5,1c-0.1,0-0.2,0.2-0.2,0.3c0.1,0.1,0.2,0.4,0.3,0.3c0.3-0.1,0.5-0.3,0.8-0.5c0.2-0.1,0.4-0.4,0.7-0.5
	c0.3-0.1,0.6,0.1,0.8-0.4c0,0,0.1,0,0.2,0c0.3,0,0.5,0,0.8,0c0.4,0.1,0.5-0.3,0.6-0.6c0.1-0.1,0.2-0.2,0.3-0.3
	c0.3-0.3,0.6-0.5,0.8-0.8c0.3-0.3,0.5-0.3,0.8,0.1c0.1,0.2,0.5,0.6,0.5,0.5c0.4-0.4,0.8-0.3,1.3-0.2c0.4,0.1,0.7,0.2,0.9,0.5
	c0.3,0.5,0.6,0.8,1,0.5c0,0,0,0,0.1,0.1C11.1,62.6,11,63,11,63.5c-0.5-0.2-1.1-0.3-1.6-0.5c-0.1,0-0.2-0.1-0.3-0.1
	c-0.4,0.2-0.9,0.4-1.3,0.6c-0.4-0.2-0.9-0.4-1.5-0.7C6,63,5.6,63.2,5.3,63.4c-0.8-0.6-1.4-0.3-2,0.2c-0.1,0.3-0.1,0.6-0.2,0.7
	c-0.2,0.2-0.4,0.2-0.6,0.3c-0.1,0.1-0.3,0.2-0.4,0.3c0.1,0.1,0.1,0.3,0.2,0.4c0.3,0.3,0.2,0.7-0.1,0.9c-0.3,0.2-0.3,0.4-0.2,0.5
	c0.3-0.1,0.6-0.4,0.7-0.3c0.4,0.4,0.6,0.1,0.7-0.3C3.6,66.1,3.8,66,4,66C3.9,65.8,3.9,65.7,3.9,65.6z M19,65c0,0.1-0.1,0.1-0.1,0.2
	c-0.3,0.1-0.7,0.2-1,0.3c-0.1,0.1-0.4,0.2-0.4,0.3c0,0.6-0.4,1-0.7,1.4c0.1,0.1,0.2,0.3,0.3,0.5c0.3-0.2,0.7-0.3,0.8-0.6
	c0.3-0.6,0.7-0.8,1.2-0.7c0.1,0,0.2-0.2,0.2-0.3C19.2,65.7,19.1,65.4,19,65z M14.6,66.5c0.1-0.3-0.1-0.5-0.4-0.4
	c-0.3,0.1-0.7,0.2-1,0.4c-0.1,0.1-0.2,0.3-0.3,0.5c0.4,0,0.8,0,1.1,0c0,0,0-0.1,0-0.1C14.2,66.7,14.3,66.6,14.6,66.5z M14.1,63
	c0.3-0.6,0.3-0.6-0.5-1.1c-0.1,0.3-0.3,0.5-0.4,0.9C13.5,62.9,13.8,63,14.1,63z"/>
</svg>
