<?xml version="1.0" encoding="utf-8"?>
<!-- Generator: Adobe Illustrator 27.0.0, SVG Export Plug-In . SVG Version: 6.00 Build 0)  -->
<svg version="1.1" id="Lager_1" xmlns="http://www.w3.org/2000/svg" xmlns:xlink="http://www.w3.org/1999/xlink" x="0px" y="0px"
	 viewBox="0 0 100 100" style="enable-background:new 0 0 100 100;" xml:space="preserve">
<style type="text/css">
	.st0{fill:#BE1622;stroke:#1F0100;stroke-width:3;stroke-miterlimit:10;}
	.st1{fill:#F9B233;stroke:#453203;stroke-miterlimit:10;}
	.st2{fill:#212121;stroke:#1F0100;stroke-width:3;stroke-miterlimit:10;}
	.st3{fill:none;stroke:#901416;stroke-width:3;stroke-miterlimit:10;}
</style>
<path class="st0" d="M74.5,37.5c0,0-3.4,0-7.2,0c0,0-5.4-4-6.4-4.5c-1-0.4-16.1-0.4-17.3,0c-1.2,0.4-6.8,4.5-6.8,4.5h-8.1
	c-6.6,0-12,5.4-12,12v26c0,6.6,5.4,12,12,12h46c6.6,0,12-5.4,12-12v-26C86.8,43,81.1,37.5,74.5,37.5z M58.4,46.5
	c-5.2,0.2-8.3,0.2-11.6-0.1c-2.1-0.2-3.9-2.2-6-4.6c0,0,3.9-3,4.8-3.4c1.1-0.5,11.8-0.5,13,0c1.2,0.5,5,3.8,5,3.8
	C62.5,44.4,60.3,46.5,58.4,46.5z"/>
<path class="st1" d="M21,23.6"/>
<path class="st1" d="M13.2,14.4l0.9-0.7l0.9-0.8l0.5-0.5c0,0,5.8,6.3,7.5,8.6c0.3,0.4,0.8,1.4,1,1.9c0.9,2.7,2.2,11.2,2.2,11.2
	l-2.9,0.6c0,0-1.1-9.1-2.5-11.5C19.1,20.7,13.2,14.4,13.2,14.4z"/>
<path class="st2" d="M28.3,37.4l-5.8,1.2c-0.5,0.1-1.1-0.2-1.2-0.8l-0.1-0.7c-0.1-0.5,0.2-1.1,0.8-1.2l5.8-1.2
	c0.5-0.1,1.1,0.2,1.2,0.8l0.1,0.7C29.2,36.8,28.9,37.3,28.3,37.4z"/>
<line class="st3" x1="71.1" y1="50.5" x2="32.5" y2="76.6"/>
<line class="st3" x1="32.5" y1="50.4" x2="71.1" y2="76.6"/>
</svg>
