<?xml version="1.0" encoding="utf-8"?>
<!-- Generator: Adobe Illustrator 27.0.0, SVG Export Plug-In . SVG Version: 6.00 Build 0)  -->
<svg version="1.1" id="Lager_1" xmlns="http://www.w3.org/2000/svg" xmlns:xlink="http://www.w3.org/1999/xlink" x="0px" y="0px"
	 viewBox="0 0 100 100" style="enable-background:new 0 0 100 100;" xml:space="preserve">
<style type="text/css">
	.st0{fill:#FFFFFF;stroke:#432F35;stroke-width:3;stroke-miterlimit:10;}
	.st1{fill:#B73D4A;stroke:#432F35;stroke-width:3;stroke-miterlimit:10;}
	.st2{fill:#F4E72D;stroke:#000000;stroke-width:3;stroke-miterlimit:10;}
	.st3{fill:#5C5C5B;stroke:#432F35;stroke-width:3;stroke-miterlimit:10;}
</style>
<path class="st0" d="M80,24.4"/>
<path class="st0" d="M20,24.4"/>
<path class="st1" d="M31.6,81c0,0,0.8,4.8,1.5,5.9c1.8,2.5,26,4.3,33.3,0.2c1.1-0.6,2-6,2-6"/>
<path class="st1" d="M75,74.8c0,5.3-11.2,9.5-25,9.5s-25-4.3-25-9.5V23.9c0-5.3,11.2-9.5,25-9.5s25,4.3,25,9.5V74.8z"/>
<path class="st1" d="M25,74.8V23.9c0-5.3,11.2-9.5,25-9.5s25,4.3,25,9.5v50.9"/>
<g>
	<path class="st2" d="M60.3,62.2c-7.6,0.4-11.4,0.4-19,0c-1.6-0.1-3-1.5-3-3.2c0-7.6,0-11.4,0-19c0-1.7,1.3-2.9,3-2.8
		c7.6,0.4,11.4,0.4,19,0c1.6-0.1,3,1.2,3,2.8c0,7.6,0,11.4,0,19C63.3,60.6,61.9,62.1,60.3,62.2z"/>
	<path d="M53.3,57.7c1,0,1.4,0,1.8,0.1c0.3,0.1,0.5,0.4,0.8,0.6c-0.2,0.2-0.5,0.5-0.7,0.6c-3.4,0.1-6.8,0.1-10.2,0
		c0-0.3-0.1-0.6-0.1-0.9c0.9-0.1,1.8-0.3,3.4-0.6c-4.1-0.9-4.2-4-5-6.9c0.8,0.6,1.5,1.1,2.3,1.6c-0.3-1.8-0.5-3.3-0.7-5.3
		c0.7,0.6,1.1,1,1.6,1.4c0.2-1.3,0.4-2.5,0.6-3.7c0.1,0,0.3-0.1,0.4-0.1c0.4,0.9,0.8,1.7,1.3,2.6c0.1,0,0.3,0,0.4,0
		c0.2-1.9,0.5-3.8,0.8-6.3c1,2.6,1.9,4.7,2.8,6.9c0.4-0.9,0.7-1.8,1.2-3.2c0.2,1.8,0.4,3.1,0.6,4.5c0.4-0.4,0.8-0.7,1.7-1.4
		c-0.1,1.7-0.2,3-0.2,4.4c0,0,0.4,0,0.8,0C56.9,54.5,55.9,56.3,53.3,57.7z M46.9,55c1,2.2,3.1,3.4,4.6,2.7c1-0.5,1.7-1.5,2.9-2.6
		c-1,0-1.3,0-1.8,0c0.3-0.8,0.6-1.6,0.9-2.6c-0.8,0.3-1.2,0.5-1.6,0.7c-0.5-1.4-0.9-2.6-1.3-3.9c-0.1,0-0.3,0.1-0.4,0.1
		c-0.3,1.3-0.7,2.7-1.1,4.1c-0.5-0.2-0.9-0.5-1.7-0.8c0.4,1,0.7,1.7,1,2.5C48,55,47.6,55,46.9,55z"/>
</g>
<path class="st3" d="M60.9,15.3c0-0.9-0.5-3-1.1-3.4c-4-2.3-17.3-1.3-18.2,0.1c-0.4,0.6-0.8,2.4-0.8,3.3c0,0.9,0.4,2.7,0.8,3.3
	c1,1.4,14.2,2.4,18.2,0.1C60.4,18.3,60.9,16.2,60.9,15.3z"/>
</svg>
