<?xml version="1.0" encoding="utf-8"?>
<!-- Generator: Adobe Illustrator 27.0.1, SVG Export Plug-In . SVG Version: 6.00 Build 0)  -->
<svg version="1.1" id="Lager_1" xmlns="http://www.w3.org/2000/svg" xmlns:xlink="http://www.w3.org/1999/xlink" x="0px" y="0px"
	 viewBox="0 0 100 100" style="enable-background:new 0 0 100 100;" xml:space="preserve">
<style type="text/css">
	.st0{fill:#9C9395;}
	.st1{opacity:0.18;fill:none;stroke:#000000;stroke-width:3;stroke-miterlimit:10;enable-background:new    ;}
	.st2{opacity:0.15;fill:none;stroke:#000000;stroke-width:3;stroke-miterlimit:10;enable-background:new    ;}
	.st3{opacity:0.24;fill:none;stroke:#000000;stroke-width:3;stroke-miterlimit:10;enable-background:new    ;}
	.st4{opacity:0.36;fill:none;stroke:#575756;stroke-width:3;stroke-miterlimit:10;enable-background:new    ;}
	.st5{opacity:0.51;fill:#867F86;enable-background:new    ;}
	.st6{opacity:0.36;fill:#867F86;enable-background:new    ;}
	.st7{opacity:0.3;fill:none;stroke:#575756;stroke-width:3;stroke-miterlimit:10;enable-background:new    ;}
</style>
<rect class="st0" width="100" height="100"/>
<line class="st1" x1="0" y1="20.2" x2="100" y2="19.8"/>
<line class="st2" x1="0.1" y1="40.2" x2="100.1" y2="39.8"/>
<line class="st3" x1="0" y1="60.2" x2="100" y2="59.8"/>
<line class="st4" x1="0" y1="80.2" x2="100" y2="79.8"/>
<path class="st5" d="M100,53.2c-0.7,0.2-1.5,0.5-2.4,0.9c-6.3,2.9-10.2,4.2-13.8,2.3c-3.7-1.8-27.9,13-27.9,13s4.7,6.5,11,8.6
	s7-1.6,12,0s5,1.6,5,1.6C89.4,86.9,98.5,90,98.5,90h1.6"/>
<path class="st0" d="M139.2,32.5"/>
<path class="st5" d="M0,90.1h7.8c0,0,8.9-3.1,8.1-6.5s1.6-8.9,1.6-12.3s2.6-5.5-1.6-9.4s-8.1-6-10.4-6.5c-2-0.4-1.7-3.1-5.4-2.2"/>
<path class="st6" d="M42.4,48.2"/>
<path class="st6" d="M42.4,48.2c1,1,2.5,4.4,3.1,7.7s-1.6,5.5,0,8s0.2,4.5,1.6,2.5c1.4-2,2.8-1.4,3-4.9s-1.2-3.9-1.2-7.2
	s-0.6-2.1,0.4-4.3l12.9-15.7c5.3-7.8,4.1-8.6,8.6-12.1s11.3-2.2,9.2-8s-3.3-8.4-5.9-9c-2.5-0.6-6.8-3.7-8.8,0s-2.5,5.7-5.7,6.7
	s-6.8,2.3-6.8,2.3C37.1,19.8,31.6,10.1,33,24.7c1.4,14.7-5.9,11.9,2.3,17C38.5,43.7,40.6,46.3,42.4,48.2"/>
<line class="st7" x1="0" y1="100" x2="100" y2="99.6"/>
<line class="st7" x1="0.1" y1="0.4" x2="100.1" y2="0"/>
</svg>
