<?xml version="1.0" encoding="utf-8"?>
<!-- Generator: Adobe Illustrator 27.0.1, SVG Export Plug-In . SVG Version: 6.00 Build 0)  -->
<svg version="1.1" id="Lager_1" xmlns="http://www.w3.org/2000/svg" xmlns:xlink="http://www.w3.org/1999/xlink" x="0px" y="0px"
	 viewBox="0 0 100 100" style="enable-background:new 0 0 100 100;" xml:space="preserve">
<style type="text/css">
	.st0{fill:#999999;}
	.st1{fill:#4D4D4D;}
	.st2{fill:#808080;}
	.st3{fill:#666666;}
</style>
<g id="Plates">
	<polygon class="st0" points="2.5,50.2 50.2,2.5 51.3,1.3 50,0 0,50 1.3,51.3 	"/>
	<polygon class="st1" points="98.7,48.7 49.8,97.5 48.7,98.7 50,100 100,50 	"/>
	
		<rect x="24.8" y="40.9" transform="matrix(0.7071 -0.7071 0.7071 0.7071 -45.1279 39.8861)" class="st2" width="1.6" height="66.9"/>
	<polygon class="st2" points="50.2,2.5 97.5,49.8 49.8,97.5 98.7,48.7 51.3,1.3 	"/>
	<path class="st3" d="M50.2,2.5L2.5,50.2l47.3,47.3l47.7-47.7L50.2,2.5z M9,51.2c-0.7,0-1.2-0.5-1.2-1.2s0.5-1.2,1.2-1.2
		s1.2,0.5,1.2,1.2S9.7,51.2,9,51.2z M50,92.2c-0.7,0-1.2-0.5-1.2-1.2s0.5-1.2,1.2-1.2s1.2,0.5,1.2,1.2S50.7,92.2,50,92.2z M50,10.2
		c-0.7,0-1.2-0.5-1.2-1.2s0.5-1.2,1.2-1.2s1.2,0.5,1.2,1.2S50.7,10.2,50,10.2z M91,51.2c-0.7,0-1.2-0.5-1.2-1.2s0.5-1.2,1.2-1.2
		s1.2,0.5,1.2,1.2S91.6,51.2,91,51.2z"/>
	<path class="st0" d="M50,7.8c-0.7,0-1.2,0.5-1.2,1.2s0.5,1.2,1.2,1.2s1.2-0.5,1.2-1.2S50.7,7.8,50,7.8z"/>
	<path class="st0" d="M50,89.8c-0.7,0-1.2,0.5-1.2,1.2s0.5,1.2,1.2,1.2s1.2-0.5,1.2-1.2S50.7,89.8,50,89.8z"/>
	<path class="st0" d="M9,48.8c-0.7,0-1.2,0.5-1.2,1.2s0.5,1.2,1.2,1.2s1.2-0.5,1.2-1.2S9.7,48.8,9,48.8z"/>
	<path class="st0" d="M91,48.8c-0.7,0-1.2,0.5-1.2,1.2s0.5,1.2,1.2,1.2s1.2-0.5,1.2-1.2S91.6,48.8,91,48.8z"/>
	<polygon class="st0" points="52.5,0.2 52.7,0 50,0 51.3,1.3 	"/>
	<polygon class="st1" points="99.8,47.5 98.7,48.7 100,50 100,47.3 	"/>
	<rect x="74.8" y="-9.1" transform="matrix(0.7071 -0.7071 0.7071 0.7071 4.8721 60.5967)" class="st2" width="1.6" height="66.9"/>
	<path class="st3" d="M100,47.3v-5.1c-0.7,0-1.2-0.5-1.2-1.2s0.5-1.2,1.2-1.2V0H60.2c0,0.7-0.5,1.2-1.2,1.2c-0.7,0-1.2-0.5-1.2-1.2
		h-5.1l-0.2,0.2l47.3,47.3L100,47.3z"/>
	<path class="st0" d="M98.8,41c0,0.7,0.5,1.2,1.2,1.2v-2.4C99.3,39.8,98.8,40.3,98.8,41z"/>
	<path class="st0" d="M59,1.2c0.7,0,1.2-0.5,1.2-1.2h-2.4C57.8,0.7,58.4,1.2,59,1.2z"/>
	<polygon class="st1" points="-0.2,47.5 -1.3,48.7 0,50 0,47.3 	"/>
	<polygon class="st1" points="47.3,0 0,47.3 0,50 50,0 	"/>
	<path class="st3" d="M41,1.2c-0.7,0-1.2-0.5-1.2-1.2H0v39.8c0.7,0,1.2,0.5,1.2,1.2S0.7,42.2,0,42.2v5.1L47.3,0h-5.1
		C42.2,0.7,41.6,1.2,41,1.2z"/>
	<path class="st0" d="M1.2,41c0-0.7-0.5-1.2-1.2-1.2v2.4C0.7,42.2,1.2,41.6,1.2,41z"/>
	<path class="st0" d="M41,1.2c0.7,0,1.2-0.5,1.2-1.2h-2.4C39.8,0.7,40.3,1.2,41,1.2z"/>
	<polygon class="st0" points="52.7,100 50,100 51.3,101.3 52.5,100.2 	"/>
	<polygon class="st0" points="100.2,52.5 101.3,51.3 100,50 100,52.7 	"/>
	<polygon class="st0" points="100,52.7 100,50 50,100 52.7,100 	"/>
	<path class="st3" d="M59,98.8c0.7,0,1.2,0.5,1.2,1.2H100V60.2c-0.7,0-1.2-0.5-1.2-1.2s0.5-1.2,1.2-1.2v-5.1L52.7,100h5.1
		C57.8,99.3,58.4,98.8,59,98.8z"/>
	<path class="st0" d="M98.8,59c0,0.7,0.5,1.2,1.2,1.2v-2.4C99.3,57.8,98.8,58.4,98.8,59z"/>
	<path class="st0" d="M59,98.8c-0.7,0-1.2,0.5-1.2,1.2h2.4C60.2,99.3,59.7,98.8,59,98.8z"/>
	<polygon class="st0" points="0.2,52.5 1.3,51.3 0,50 0,52.7 	"/>
	<polygon class="st1" points="47.3,100 50,100 48.7,98.7 	"/>
	<polygon class="st2" points="0.2,52.5 47.5,99.8 47.3,100 47.3,100 48.7,98.7 1.3,51.3 	"/>
	<path class="st3" d="M1.2,59c0,0.7-0.5,1.2-1.2,1.2V100h39.8c0-0.7,0.5-1.2,1.2-1.2s1.2,0.5,1.2,1.2h5.1l0.2-0.2L0.2,52.5L0,52.7
		v5.1C0.7,57.8,1.2,58.4,1.2,59z"/>
	<path class="st0" d="M1.2,59c0-0.7-0.5-1.2-1.2-1.2v2.4C0.7,60.2,1.2,59.7,1.2,59z"/>
	<path class="st0" d="M41,98.8c-0.7,0-1.2,0.5-1.2,1.2h2.4C42.2,99.3,41.6,98.8,41,98.8z"/>
</g>
</svg>
