<?xml version="1.0" encoding="utf-8"?>
<!-- Generator: Adobe Illustrator 27.0.1, SVG Export Plug-In . SVG Version: 6.00 Build 0)  -->
<svg version="1.1" id="Lager_1" xmlns="http://www.w3.org/2000/svg" xmlns:xlink="http://www.w3.org/1999/xlink" x="0px" y="0px"
	 viewBox="0 0 100 100" style="enable-background:new 0 0 100 100;" xml:space="preserve">
<style type="text/css">
	.st0{fill:#5EBDDF;}
	.st1{fill:#3C9862;}
	.st2{fill:#575756;}
	.st3{fill:none;stroke:#EDEDED;stroke-width:2;stroke-miterlimit:10;}
	.st4{fill:none;stroke:#EDEDED;stroke-width:2;stroke-miterlimit:10;stroke-dasharray:8.3636,8.3636;}
</style>
<rect class="st0" width="100" height="47.5"/>
<rect y="47.5" class="st1" width="100" height="52.5"/>
<rect y="57.5" class="st2" width="100" height="30"/>
<g>
	<g>
		<line class="st3" x1="0" y1="70" x2="4" y2="70"/>
		<line class="st4" x1="12.4" y1="70" x2="91.8" y2="70"/>
		<line class="st3" x1="96" y1="70" x2="100" y2="70"/>
	</g>
</g>
<path class="st1" d="M0,40.8c8.7-0.4,13.1-9.5,17.7-12.4s11.9-5.7,16.5-3.1s9.8,8.1,13.3,9.4s7.4,2.7,11.4,2s4.4-3.1,10.4-4.6
	s6.5-3,11.2-1.4c4.7,1.7,6.4,3.2,8.6,4.5s3.2,2.2,6.5,3.9c3.2,1.7,4.4,1.7,4.4,1.7V50H0V40.8z"/>
</svg>
