<?xml version="1.0" encoding="utf-8"?>
<!-- Generator: Adobe Illustrator 27.0.0, SVG Export Plug-In . SVG Version: 6.00 Build 0)  -->
<svg version="1.1" id="Lager_1" xmlns="http://www.w3.org/2000/svg" xmlns:xlink="http://www.w3.org/1999/xlink" x="0px" y="0px"
	 viewBox="0 0 256 256" style="enable-background:new 0 0 256 256;" xml:space="preserve">
<style type="text/css">
	.st0{fill:url(#SVGID_1_);}
	.st1{fill:#4D4D4D;}
</style>
<g>
	<radialGradient id="SVGID_1_" cx="128" cy="128" r="123" gradientUnits="userSpaceOnUse">
		<stop  offset="2.237672e-07" style="stop-color:#999999"/>
		<stop  offset="1" style="stop-color:#666666"/>
	</radialGradient>
	<path class="st0" d="M10,251c-2.8,0-5-2.2-5-5V10c0-2.8,2.2-5,5-5h236c2.8,0,5,2.2,5,5v236c0,2.8-2.2,5-5,5H10z"/>
	<path class="st1" d="M246,10v236H10V10H246 M246,0H10C4.5,0,0,4.5,0,10v236c0,5.5,4.5,10,10,10h236c5.5,0,10-4.5,10-10V10
		C256,4.5,251.5,0,246,0L246,0z"/>
</g>
<g>
	<circle class="st1" cx="30.1" cy="30.1" r="11.1"/>
</g>
<g>
	<circle class="st1" cx="225.9" cy="30.1" r="11.1"/>
</g>
<g>
	<circle class="st1" cx="30.1" cy="225.9" r="11.1"/>
</g>
<g>
	<circle class="st1" cx="225.9" cy="225.9" r="11.1"/>
</g>
</svg>
