<?xml version="1.0" encoding="utf-8"?>
<!-- Generator: Adobe Illustrator 27.0.1, SVG Export Plug-In . SVG Version: 6.00 Build 0)  -->
<svg version="1.1" id="Lager_1" xmlns="http://www.w3.org/2000/svg" xmlns:xlink="http://www.w3.org/1999/xlink" x="0px" y="0px"
	 viewBox="0 0 100 100" style="enable-background:new 0 0 100 100;" xml:space="preserve">
<style type="text/css">
	.st0{fill:#0071BC;stroke:#000000;stroke-miterlimit:10;}
	.st1{fill:#C1272D;stroke:#000000;stroke-miterlimit:10;}
	.st2{fill:#DFFFF0;stroke:#000000;stroke-miterlimit:10;}
	.st3{fill:#4D4D4D;}
	.st4{fill:none;stroke:#B3B3B3;stroke-width:2;stroke-miterlimit:10;}
	.st5{fill:none;stroke:#333333;stroke-width:3;stroke-miterlimit:10;}
	.st6{fill:#999999;}
</style>
<polygon points="12.3,58.9 30.7,59.8 30.2,50 12.3,50 "/>
<polygon points="72.5,59.5 90.8,59.6 90.3,50 72.5,50 "/>
<path class="st0" d="M96.4,59.5l0-5.3L96,53.9l0-3.1c0,0-3.4-1.9-7-2.9c-3.6-1-9.6-2.1-14.6-2.5c-5-0.5-4.7-0.6-4.7-0.6
	s-8.1-5-14.4-7.4c-6.3-2.3-19.7-1.4-21.3-1.3c-1.6,0.1-6.2,0.9-8.8,2.1c-2.6,1.1-10.5,4.9-10.5,4.9L5.6,44c0,0-0.6-0.1-0.8,0.5
	s-0.3,6.2-0.3,6.2l-1.7,0.8c0,0,0.1,4,0.5,5.1c0.5,1.1,0,1.5,0.5,2.1c0.5,0.6,0.7,0.9,0.9,0.9s8.3,0.8,8.3,0.8s0.6-5.4,2.1-6.7
	s3.4-2.8,5.2-2.8c1.8-0.1,5,0.3,6.4,1.8c1.4,1.5,2.8,3.8,3,6.1v2.6h44.1c0,0,0-5.7,1.9-8c1.3-1.5,3.2-2.8,6.9-2.6
	c3.7,0.2,6.5,2.3,7,5.3c0.5,3,0.4,5.3,0.4,5.3h3.5c0,0,1.3,0,2.5-0.9C97.3,59.6,96.4,59.5,96.4,59.5z M20.6,43.3
	c3.2-2.6,6.4-4,9.8-5c3.4-1,11.5-1.1,11.5-1.1l1.2,7L20.6,43.3z M44.1,44.2l-1.5-7c0,0,8.6,0,12.1,1.6c3.5,1.6,9.4,5,10.6,6.2
	L44.1,44.2z"/>
<path class="st1" d="M10.8,47.4c0,0-0.7-1.5-1.3-1.5c-0.6,0-4.9,0-4.9,0l-0.1,3.3h3c0,0,1-0.3,1.7-0.7C10,48.1,10.8,47.4,10.8,47.4z
	"/>
<path class="st2" d="M88.3,50.1c0,0,4.1-0.1,4.4,0c0.3,0.1,2.1,0.4,2.2,0.6c0.1,0.2,0.2,2.2-0.3,2.4c-0.4,0.2-1.3-0.3-1.3-0.3
	L88.3,50.1z"/>
<g id="Tires">
	<circle class="st3" cx="21.5" cy="59.8" r="3.5"/>
	<g>
		<g>
			<line class="st4" x1="21.5" y1="61" x2="21.5" y2="65.6"/>
		</g>
		<g>
			<line class="st4" x1="20.4" y1="60.2" x2="16" y2="61.6"/>
		</g>
		<g>
			<line class="st4" x1="20.8" y1="58.9" x2="18.1" y2="55.2"/>
		</g>
		<g>
			<line class="st4" x1="22.2" y1="58.9" x2="24.9" y2="55.2"/>
		</g>
		<g>
			<line class="st4" x1="22.6" y1="60.2" x2="26.9" y2="61.6"/>
		</g>
	</g>
	<circle class="st5" cx="21.5" cy="59.8" r="5.8"/>
	<circle class="st6" cx="21.5" cy="59.8" r="1.5"/>
	<circle class="st3" cx="82" cy="59.2" r="3.5"/>
	<g>
		<g>
			<line class="st4" x1="82" y1="60.4" x2="82" y2="65"/>
		</g>
		<g>
			<line class="st4" x1="80.9" y1="59.6" x2="76.5" y2="61"/>
		</g>
		<g>
			<line class="st4" x1="81.3" y1="58.3" x2="78.6" y2="54.6"/>
		</g>
		<g>
			<line class="st4" x1="82.7" y1="58.3" x2="85.4" y2="54.6"/>
		</g>
		<g>
			<line class="st4" x1="83.1" y1="59.6" x2="87.4" y2="61"/>
		</g>
	</g>
	<circle class="st5" cx="82" cy="59.2" r="5.8"/>
	<circle class="st6" cx="82" cy="59.2" r="1.5"/>
</g>
</svg>
