<?xml version="1.0" encoding="utf-8"?>
<!-- Generator: Adobe Illustrator 27.0.1, SVG Export Plug-In . SVG Version: 6.00 Build 0)  -->
<svg version="1.1" id="Lager_1" xmlns="http://www.w3.org/2000/svg" xmlns:xlink="http://www.w3.org/1999/xlink" x="0px" y="0px"
	 viewBox="0 0 100 100" style="enable-background:new 0 0 100 100;" xml:space="preserve">
<style type="text/css">
	.st0{fill-rule:evenodd;clip-rule:evenodd;fill:#5F91B5;stroke:#000000;stroke-miterlimit:10;}
	.st1{fill-rule:evenodd;clip-rule:evenodd;fill:none;stroke:#000000;stroke-miterlimit:10;}
	.st2{fill-rule:evenodd;clip-rule:evenodd;fill:#295F97;stroke:#000000;stroke-miterlimit:10;}
	.st3{fill-rule:evenodd;clip-rule:evenodd;}
	.st4{fill:#FFFFE9;}
	.st5{fill-rule:evenodd;clip-rule:evenodd;fill:#F15A24;}
	.st6{fill-rule:evenodd;clip-rule:evenodd;fill:#F7931E;}
	.st7{fill-rule:evenodd;clip-rule:evenodd;fill:#FBB03B;}
	.st8{fill-rule:evenodd;clip-rule:evenodd;fill:#E6E6E6;stroke:#000000;stroke-miterlimit:10;}
	.st9{fill:none;stroke:#000000;stroke-miterlimit:10;stroke-dasharray:1,0.3;}
	.st10{fill:#CBC821;}
	.st11{fill:#333333;}
</style>
<rect x="10" y="16.7" class="st0" width="66.7" height="53.3"/>
<line class="st1" x1="20.7" y1="70" x2="10" y2="70"/>
<polygon class="st2" points="16.7,83.3 10,83.3 10,70 20.7,70 "/>
<polygon class="st2" points="70,83.3 76.7,83.3 76.7,70 66,70 "/>
<path class="st1" d="M20.7,70"/>
<g>
	<rect x="21.5" y="28.2" class="st3" width="43.7" height="30.3"/>
	<path class="st4" d="M63.7,29.7V57H23V29.7H63.7 M66.7,26.7H20V60h46.7V26.7L66.7,26.7z"/>
</g>
<path class="st5" d="M23.5,56.6c1.1-8,2.3-12.1,3.6-15.7c1.3-3.5,1.8-7.2,1.8-7.2s0.8,7.7,1.5,9.6c0.7,1.9,1,3.7,2.3,5.3
	c1.2,1.6,2.3,3.1,2.3,3.1l3.3-6.6c0,0,2.1-5.6,2.3-8.9c0.2-3.3,0-5.6,0-5.6l2.3,7.3c0,0,0.3,0.9,1.7,4.8c1.4,3.9,1.7,6.2,4,4.9
	c2.3-1.3,5.9-13.9,5.9-13.9l1.6,5.9c0,0,1,5,1.8,7.8c0.8,2.9-0.1,1.1,2.3,5.3s3.2,3.8,3.2,3.8"/>
<path class="st6" d="M23.5,56.6c1.1-4.7,2.3-7.2,3.6-9.3c1.3-2.1,1.8-4.3,1.8-4.3s0.8,4.5,1.5,5.7s1,2.2,2.3,3.1
	c1.2,0.9,2.3,1.8,2.3,1.8l3.3-3.9c0,0,2.1-3.3,2.3-5.2c0.2-1.9,0-3.3,0-3.3l2.3,4.3c0,0,0.3,0.5,1.7,2.9c1.4,2.3,1.7,3.7,4,2.9
	c2.3-0.8,5.9-8.2,5.9-8.2l1.6,3.5c0,0,1,2.9,1.8,4.6c0.8,1.7-0.1,0.6,2.3,3.1c2.3,2.5,3.2,2.3,3.2,2.3"/>
<path class="st7" d="M23.5,56.6c1.1-2.4,2.3-3.6,3.6-4.6c1.3-1,1.8-2.1,1.8-2.1s0.8,2.3,1.5,2.8c0.7,0.6,1,1.1,2.3,1.6
	c1.2,0.5,2.3,0.9,2.3,0.9l3.3-2c0,0,2.1-1.7,2.3-2.6c0.2-1,0-1.7,0-1.7l2.3,2.2c0,0,0.3,0.3,1.7,1.4c1.4,1.2,1.7,1.8,4,1.5
	c2.3-0.4,5.9-4.1,5.9-4.1l1.6,1.7c0,0,1,1.5,1.8,2.3c0.8,0.8-0.1,0.3,2.3,1.6s3.2,1.1,3.2,1.1"/>
<rect x="76.7" y="27.3" class="st8" width="13.3" height="29.3"/>
<line class="st9" x1="78.3" y1="32" x2="88.3" y2="32"/>
<line class="st9" x1="78.3" y1="34" x2="88.3" y2="34"/>
<rect x="84.7" y="36.7" class="st10" width="3.3" height="1.7"/>
<rect x="79.3" y="47.3" class="st11" width="8" height="6.7"/>
</svg>
