<?xml version="1.0" encoding="utf-8"?>
<!-- Generator: Adobe Illustrator 27.0.1, SVG Export Plug-In . SVG Version: 6.00 Build 0)  -->
<svg version="1.1" id="Lager_1" xmlns="http://www.w3.org/2000/svg" xmlns:xlink="http://www.w3.org/1999/xlink" x="0px" y="0px"
	 viewBox="0 0 100 100" style="enable-background:new 0 0 100 100;" xml:space="preserve">
<style type="text/css">
	.st0{fill:#333333;}
	.st1{fill:#E6E6E6;stroke:#000000;stroke-miterlimit:10;}
	.st2{fill:url(#SVGID_1_);stroke:#000000;stroke-miterlimit:10;}
	.st3{fill:none;stroke:#000000;stroke-miterlimit:10;stroke-dasharray:1,1;}
	.st4{stroke:#000000;stroke-miterlimit:10;}
</style>
<polygon class="st0" points="72.3,56.7 72.4,62.4 75.8,62.3 75.5,56.4 "/>
<polygon class="st1" points="30.3,35.3 33.3,36.2 38.6,39.3 48.6,46.4 59.6,46.1 35.5,36.2 33.5,35.7 "/>
<polygon class="st1" points="2,43 8.2,49.1 10.5,48.8 8.7,44.3 5.7,42.8 "/>
<path class="st1" d="M73.6,56.7c0,0,1.7-0.4,2.5-0.3c0.8,0.1,1.1,0.3,1.1,0.3s0.6-0.1,1.2,0c0.7,0.1,1.3,0.5,1.5,0.9
	c0.2,0.4,0.5,1.1,0.2,2.5s-1.2,1.5-1.4,1.6c-0.3,0.1-1.3,0.4-1.7,0.4c-0.4,0.1-3.5,0.1-3.5,0.1s1.4-0.5,1.4-1.9
	c0-1.4-0.1-1.9-0.5-2.5C74,57.4,73.6,56.7,73.6,56.7z"/>
<linearGradient id="SVGID_1_" gradientUnits="userSpaceOnUse" x1="49.9949" y1="31.8787" x2="51.238" y2="55.5985">
	<stop  offset="0.8796" style="stop-color:#E6E6E6"/>
	<stop  offset="0.8946" style="stop-color:#D0D0D0"/>
	<stop  offset="0.9259" style="stop-color:#989898"/>
	<stop  offset="0.9702" style="stop-color:#3F3F3F"/>
	<stop  offset="1" style="stop-color:#000000"/>
</linearGradient>
<path class="st2" d="M95.6,46.7c-1-0.4-3.5-1.1-4.4-1.1s-31.5,0.5-31.5,0.5L31,46.8c0,0-2.8,0.2-3.9,0.3c-1.1,0.1-2.6,0.4-2.9,0.3
	c-0.4-0.1-3.6-3.2-3.6-3.2l-10-8.9c0,0-0.3-0.9-2.2-1s-3.3,0-3.3,0l5.5,14.5l-7,0.9v2.2l25.2,4.2c0,0,1.9,0.3,3.8,0.3
	c1.9,0,17-1,17-1l41.5-2.1c0,0,2.5-0.4,4.3-1.2c1.8-0.8,2.6-1.2,2.8-1.7c0.2-0.5,0.4-0.8,0.1-1.2c-0.2-0.3-0.7-1.1-0.9-1.3
	C96.9,47.5,96.1,47,95.6,46.7z"/>
<path class="st1" d="M9.7,51.3l-5.3,5.5l4.4-0.1l9.8-4.4c0,0,0.4-0.4,1.4-0.5c1.1-0.1,1.2-0.1,1.2-0.1s-0.7-0.6-3.4-0.6
	C15.3,51.2,9.7,51.3,9.7,51.3z"/>
<path class="st1" d="M55.8,55.1l5,2.7l1.2,1.2l4.6,8.3l2.5,6.4l-1.5,2.7L69,76l4-2.9l0.7-20.2c0,0-1.4-0.4-3.8-0.3s-5.2,0.7-5.9,0.9
	C63.4,53.6,55.8,55.1,55.8,55.1z"/>
<line class="st3" x1="25.9" y1="52" x2="51.4" y2="50.9"/>
<line class="st3" x1="53.4" y1="50.8" x2="70.4" y2="50"/>
<line class="st3" x1="73.6" y1="49.9" x2="89" y2="49.2"/>
<polyline class="st4" points="95.7,46.8 95.2,47.7 95.8,48.5 97.2,47.7 "/>
</svg>
