<?xml version="1.0" encoding="utf-8"?>
<!-- Generator: Adobe Illustrator 27.0.1, SVG Export Plug-In . SVG Version: 6.00 Build 0)  -->
<svg version="1.1" id="Lager_1" xmlns="http://www.w3.org/2000/svg" xmlns:xlink="http://www.w3.org/1999/xlink" x="0px" y="0px"
	 viewBox="0 0 100 100" style="enable-background:new 0 0 100 100;" xml:space="preserve">
<style type="text/css">
	.st0{fill:#333333;stroke:#000000;stroke-miterlimit:10;}
	.st1{fill:#D33C41;stroke:#000000;stroke-miterlimit:10;}
	.st2{fill:#666666;stroke:#000000;stroke-miterlimit:10;}
	.st3{fill:#FFFFEE;stroke:#000000;stroke-miterlimit:10;}
	.st4{fill:#4D4D4D;}
	.st5{fill:none;stroke:#B3B3B3;stroke-width:1.5;stroke-miterlimit:10;}
	.st6{fill:none;stroke:#000000;stroke-width:2;stroke-miterlimit:10;}
	.st7{fill:#999999;}
</style>
<path class="st0" d="M72.2,63h7.9v1.9c0,0,3,0.7,4.2,0.8c1.2,0,8.3-5.5,8.3-5.5l-69.6-0.3l-2.2-2.7l-6,0.9L12,61.3l-0.2,4L24.1,65
	l47.1-0.3L72.2,63z"/>
<polygon class="st1" points="22.1,32.9 21.8,59.8 94.4,60.2 94.4,33.5 "/>
<path class="st2" d="M5.8,60.2l-0.9,1.2v3.1l3.6,1.2h4.3c0,0-0.2-4,1.4-5.5s2.9-1.1,4-1.2c1.1-0.1,4.3,0.1,5.2,3c0.9,3,0.7,3,0.7,3
	l37.1,0.2c0,0,0.5-2.4,1.5-3.1c1-0.7,1.8-1.2,3.4-1.2c1.6,0.1,2.6,0.2,3.6,1.1c1,0.9,1.5,2.5,1.6,3c0.1,0.4,0.8,0.2,0.8,0.2l0.1-3.4
	l-0.8,0l-1.2-1.6H62c0,0-0.5,0.4-0.7,0.7s-0.4,0.8-0.4,0.8l-36.5-0.2l-3.5-4.4l-4,0.3L5.8,60.2z"/>
<path class="st1" d="M20.7,43.3c0,0-9.5,0.3-11,0.6c-1.5,0.4-2.1,0.7-2.3,1.5c-0.2,0.8-2.1,6.7-2.3,7.9c-0.1,1.3,0,6.9,0,6.9h1.6
	l-0.1,1.1H12c0,0,1.1-1.9,2.1-2.7s1.8-1.1,2.8-1.2c1,0,4-0.3,4-0.3L20.7,43.3z M16.7,51.3c-0.5,0.4-0.8,0.4-0.8,0.4
	s-1.2,0.2-3.1,0.7c-1.9,0.4-4.5,0.7-4.5,0.7s0.2-3.7,0.3-4.5c0.1-0.7,0.4-1.6,0.7-2.1c0.3-0.4,1.1-0.4,1.1-0.4l5.9-0.2
	c0,0,0.4-0.1,0.6,0.2s0.1,0.5,0.1,0.5l0,4C17,50.5,17.2,50.9,16.7,51.3z"/>
<polygon class="st3" points="4.9,61.4 5.8,60.2 6.8,60.2 6.7,61.3 6.5,65 4.9,64.5 "/>
<g id="Tires">
	<circle class="st4" cx="18.3" cy="64.1" r="1.7"/>
	<g>
		<g>
			<line class="st5" x1="18.3" y1="64.6" x2="18.3" y2="66.9"/>
		</g>
		<g>
			<line class="st5" x1="17.7" y1="64.2" x2="15.5" y2="64.9"/>
		</g>
		<g>
			<line class="st5" x1="17.9" y1="63.6" x2="16.6" y2="61.7"/>
		</g>
		<g>
			<line class="st5" x1="18.6" y1="63.6" x2="20" y2="61.7"/>
		</g>
		<g>
			<line class="st5" x1="18.8" y1="64.2" x2="21" y2="64.9"/>
		</g>
	</g>
	<circle class="st6" cx="18.3" cy="64.1" r="3.6"/>
	<circle class="st7" cx="18.3" cy="64.1" r="0.7"/>
	<circle class="st4" cx="66.2" cy="64.8" r="1.7"/>
	<g>
		<g>
			<line class="st5" x1="66.2" y1="65.4" x2="66.2" y2="67.7"/>
		</g>
		<g>
			<line class="st5" x1="65.7" y1="65" x2="63.5" y2="65.7"/>
		</g>
		<g>
			<line class="st5" x1="65.9" y1="64.3" x2="64.5" y2="62.5"/>
		</g>
		<g>
			<line class="st5" x1="66.6" y1="64.3" x2="67.9" y2="62.5"/>
		</g>
		<g>
			<line class="st5" x1="66.8" y1="65" x2="69" y2="65.7"/>
		</g>
	</g>
	<circle class="st6" cx="66.2" cy="64.8" r="3.6"/>
	<circle class="st7" cx="66.2" cy="64.8" r="0.7"/>
</g>
</svg>
